<svg width="28" height="20" viewBox="0 0 28 20" fill="none" xmlns="http://www.w3.org/2000/svg">
<path d="M10.7816 12.0925V11.5493H7.50972V9.13181H13.8892V12.0074C13.8892 16.5336 11.727 19.1632 7.63793 19.1632C3.42067 19.1632 0.97168 15.8412 0.97168 9.98389C0.97168 4.27229 3.64448 0.775391 8.54829 0.775391C10.4005 0.775391 11.9986 1.26612 12.8716 1.90489V4.39351C11.6172 3.61641 10.1731 3.19981 8.6975 3.18942C5.48152 3.18942 4.11772 5.37265 4.11772 9.98389C4.11772 14.4564 5.24722 16.7446 7.69622 16.7446C10.0356 16.7562 10.7816 14.946 10.7816 12.0925Z" fill="white"/>
<path d="M27.1192 12.4329C27.1192 16.7784 24.7762 19.1737 21.4076 19.1737C18.0389 19.1737 15.696 16.7784 15.696 12.4655C15.696 8.12004 18.0389 5.72467 21.4076 5.72467C24.7762 5.72467 27.1192 8.10955 27.1192 12.4329ZM23.9556 12.4329C23.9556 9.45119 23.1035 8.14219 21.411 8.14219C19.7185 8.14219 18.8653 9.45119 18.8653 12.4655C18.8653 15.4472 19.7174 16.7574 21.411 16.7574C23.1047 16.7574 23.9556 15.4367 23.9556 12.4329Z" fill="white"/>
</svg>
