<svg width="254" height="157" viewBox="0 0 254 157" fill="none" xmlns="http://www.w3.org/2000/svg">
<path d="M8.864 24.32C7.2 24.32 5.70667 24.0747 4.384 23.584C3.08267 23.072 2.048 22.3467 1.28 21.408C0.533333 20.4693 0.16 19.3387 0.16 18.016C0.16 16.5227 0.576 15.296 1.408 14.336C2.26133 13.3547 3.392 12.64 4.8 12.192C3.56267 11.808 2.58133 11.1893 1.856 10.336C1.13067 9.48267 0.768 8.37333 0.768 7.008C0.768 5.70667 1.12 4.59733 1.824 3.68C2.528 2.74133 3.488 2.02667 4.704 1.536C5.92 1.04533 7.30667 0.799999 8.864 0.799999C10.4 0.799999 11.776 1.04533 12.992 1.536C14.208 2.00533 15.168 2.69867 15.872 3.616C16.576 4.512 16.928 5.61067 16.928 6.912C16.928 8.32 16.5547 9.45067 15.808 10.304C15.0827 11.1573 14.112 11.7867 12.896 12.192C14.2613 12.6187 15.36 13.312 16.192 14.272C17.0453 15.2107 17.472 16.416 17.472 17.888C17.472 19.232 17.088 20.384 16.32 21.344C15.552 22.304 14.5173 23.04 13.216 23.552C11.936 24.064 10.4853 24.32 8.864 24.32ZM8.832 9.6C9.216 9.6 9.54667 9.44 9.824 9.12C10.1227 8.8 10.272 8.32 10.272 7.68C10.272 7.06133 10.1227 6.592 9.824 6.272C9.54667 5.952 9.216 5.792 8.832 5.792C8.448 5.792 8.11733 5.952 7.84 6.272C7.56267 6.592 7.424 7.06133 7.424 7.68C7.424 8.32 7.56267 8.8 7.84 9.12C8.11733 9.44 8.448 9.6 8.832 9.6ZM8.8 19.136C9.20533 19.136 9.55733 18.944 9.856 18.56C10.176 18.176 10.336 17.6213 10.336 16.896C10.336 16.1493 10.176 15.584 9.856 15.2C9.55733 14.816 9.20533 14.624 8.8 14.624C8.352 14.624 7.97867 14.816 7.68 15.2C7.40267 15.584 7.264 16.1493 7.264 16.896C7.264 17.6213 7.40267 18.176 7.68 18.56C7.97867 18.944 8.352 19.136 8.8 19.136ZM25.8178 24.32C24.1324 24.32 22.6604 23.9253 21.4018 23.136C20.1431 22.3253 19.1618 21.056 18.4578 19.328C17.7751 17.6 17.4338 15.3387 17.4338 12.544C17.4338 9.728 17.7751 7.46667 18.4578 5.76C19.1618 4.032 20.1431 2.77333 21.4018 1.984C22.6604 1.19467 24.1324 0.799999 25.8178 0.799999C27.5031 0.799999 28.9644 1.19467 30.2018 1.984C31.4391 2.752 32.3991 3.98933 33.0818 5.696C33.7644 7.40267 34.1058 9.65333 34.1058 12.448C34.1058 15.2427 33.7644 17.5147 33.0818 19.264C32.3991 21.0133 31.4391 22.2933 30.2018 23.104C28.9644 23.9147 27.5031 24.32 25.8178 24.32ZM25.7858 19.136C26.1911 19.136 26.4791 18.9653 26.6498 18.624C26.8418 18.2827 26.9591 17.6427 27.0018 16.704C27.0658 15.744 27.0978 14.368 27.0978 12.576C27.0978 10.7627 27.0658 9.38667 27.0018 8.448C26.9378 7.50933 26.8098 6.86933 26.6178 6.528C26.4471 6.18667 26.1804 6.016 25.8178 6.016C25.4551 6.016 25.1671 6.18667 24.9538 6.528C24.7618 6.86933 24.6231 7.50933 24.5378 8.448C24.4524 9.38667 24.4098 10.7627 24.4098 12.576C24.4098 14.368 24.4311 15.744 24.4738 16.704C24.5378 17.6427 24.6658 18.2827 24.8578 18.624C25.0711 18.9653 25.3804 19.136 25.7858 19.136ZM46.287 7.04C46.287 8.98133 45.8497 10.5067 44.975 11.616C44.1217 12.7253 42.9163 13.28 41.359 13.28C39.8017 13.28 38.575 12.7467 37.679 11.68C36.8043 10.6133 36.367 9.10933 36.367 7.168C36.367 5.16267 36.8043 3.616 37.679 2.528C38.575 1.44 39.8017 0.895998 41.359 0.895998C42.9163 0.895998 44.1217 1.41866 44.975 2.464C45.8497 3.488 46.287 5.01333 46.287 7.04ZM42.191 24H38.127L52.175 1.088H56.271L42.191 24ZM40.527 7.104C40.527 7.97867 40.591 8.59733 40.719 8.96C40.8683 9.30133 41.0817 9.472 41.359 9.472C41.615 9.472 41.807 9.30133 41.935 8.96C42.0843 8.59733 42.159 7.97867 42.159 7.104C42.159 6.208 42.0843 5.58933 41.935 5.248C41.807 4.88533 41.615 4.704 41.359 4.704C41.0817 4.704 40.8683 4.88533 40.719 5.248C40.591 5.58933 40.527 6.208 40.527 7.104ZM58.063 17.888C58.063 19.8293 57.6257 21.3653 56.751 22.496C55.8977 23.6053 54.6817 24.16 53.103 24.16C51.5457 24.16 50.3297 23.6267 49.455 22.56C48.5803 21.4933 48.143 19.9893 48.143 18.048C48.143 16.0427 48.5803 14.496 49.455 13.408C50.3297 12.32 51.5457 11.776 53.103 11.776C54.6817 11.776 55.8977 12.2987 56.751 13.344C57.6257 14.368 58.063 15.8827 58.063 17.888ZM52.271 17.984C52.271 18.8587 52.3457 19.4773 52.495 19.84C52.6443 20.1813 52.847 20.352 53.103 20.352C53.3803 20.352 53.583 20.1813 53.711 19.84C53.8603 19.4773 53.935 18.8587 53.935 17.984C53.935 17.088 53.8603 16.4693 53.711 16.128C53.583 15.7653 53.3803 15.584 53.103 15.584C52.847 15.584 52.6443 15.7653 52.495 16.128C52.3457 16.4693 52.271 17.088 52.271 17.984ZM71.4377 7.424V13.024H74.8298V7.424H82.2537V24H74.8298V18.368H71.4377V24H64.0137V7.424H71.4377ZM91.648 12.288C90.56 12.288 89.4507 12.3947 88.32 12.608C87.2107 12.8 86.144 13.0773 85.12 13.44V8.256C86.08 7.89333 87.2533 7.616 88.64 7.424C90.0267 7.21067 91.456 7.104 92.928 7.104C94.784 7.104 96.3733 7.328 97.696 7.776C99.04 8.20267 100.064 8.91733 100.768 9.92C101.493 10.9013 101.856 12.2347 101.856 13.92V21.344C101.856 21.6853 101.867 22.144 101.888 22.72C101.931 23.2747 101.973 23.7013 102.016 24H94.976C94.912 23.7013 94.848 23.36 94.784 22.976C94.7413 22.5707 94.688 22.1653 94.624 21.76C94.2187 22.4 93.6 22.9867 92.768 23.52C91.936 24.0533 90.8053 24.32 89.376 24.32C88.4373 24.32 87.552 24.1707 86.72 23.872C85.9093 23.552 85.248 23.0507 84.736 22.368C84.2453 21.6853 84 20.7893 84 19.68C84 17.8667 84.768 16.448 86.304 15.424C87.84 14.4 90.272 13.888 93.6 13.888H94.432C94.3467 13.3973 94.1547 13.0453 93.856 12.832C93.5573 12.5973 93.2053 12.448 92.8 12.384C92.416 12.32 92.032 12.288 91.648 12.288ZM94.464 18.016V17.088H93.504C92.6507 17.088 92.064 17.2373 91.744 17.536C91.4453 17.8347 91.296 18.1973 91.296 18.624C91.296 19.072 91.4347 19.424 91.712 19.68C91.9893 19.9147 92.352 20.032 92.8 20.032C93.376 20.032 93.792 19.8507 94.048 19.488C94.3253 19.104 94.464 18.6133 94.464 18.016ZM131.466 7.424V24H104.202V7.424H111.626V18.656H114.122V7.424H121.546V18.656H124.042V7.424H131.466ZM141.576 7.424V15.136L145.928 7.424H153.032V24H145.832V16.256L141.448 24H134.344V7.424H141.576ZM154.323 7.424H162.643L165.139 11.52L167.475 7.424H174.355L168.947 16.16L174.547 24H166.227L163.507 19.712L161.011 24H154.163L159.731 15.008L154.323 7.424ZM1.76 56V39.424H19.808V56H12.384V44.768H9.184V56H1.76ZM31.6745 56.32C29.8612 56.32 28.1972 56 26.6825 55.36C25.1892 54.6987 23.9838 53.728 23.0665 52.448C22.1705 51.168 21.7225 49.5787 21.7225 47.68C21.7225 45.8027 22.1705 44.2347 23.0665 42.976C23.9625 41.696 25.1572 40.736 26.6505 40.096C28.1652 39.4347 29.8292 39.104 31.6425 39.104C33.4772 39.104 35.1412 39.4347 36.6345 40.096C38.1492 40.736 39.3545 41.696 40.2505 42.976C41.1678 44.2347 41.6265 45.8027 41.6265 47.68C41.6265 49.5787 41.1785 51.168 40.2825 52.448C39.3865 53.728 38.1812 54.6987 36.6665 55.36C35.1732 56 33.5092 56.32 31.6745 56.32ZM31.6745 51.136C32.3572 51.136 32.9225 50.8587 33.3705 50.304C33.8398 49.728 34.0745 48.8533 34.0745 47.68C34.0745 46.528 33.8398 45.6747 33.3705 45.12C32.9225 44.5653 32.3572 44.288 31.6745 44.288C31.0132 44.288 30.4478 44.5653 29.9785 45.12C29.5092 45.6747 29.2745 46.528 29.2745 47.68C29.2745 48.8533 29.5092 49.728 29.9785 50.304C30.4478 50.8587 31.0132 51.136 31.6745 51.136ZM41.9538 50.08C42.6578 50.2293 43.1911 50.144 43.5538 49.824C43.9164 49.4827 44.1724 48.832 44.3218 47.872C44.4711 46.9333 44.5671 45.824 44.6098 44.544C44.6738 43.264 44.7058 41.5573 44.7058 39.424H60.4498V56H53.0258V44.768H50.5298C50.4658 46.3893 50.3698 47.7227 50.2418 48.768C50.1351 49.8133 49.9751 50.7093 49.7618 51.456C49.2284 53.4187 48.2898 54.784 46.9458 55.552C45.6231 56.32 43.9591 56.4693 41.9538 56V50.08ZM70.604 39.424V43.616H73.644C76.0547 43.616 77.9107 44.1707 79.212 45.28C80.5347 46.3893 81.196 47.8507 81.196 49.664C81.196 50.944 80.876 52.064 80.236 53.024C79.596 53.9627 78.7213 54.6987 77.612 55.232C76.5027 55.744 75.2227 56 73.772 56H63.34V39.424H70.604ZM72.3 51.264C73.3667 51.264 73.9 50.784 73.9 49.824C73.9 49.3333 73.7827 48.96 73.548 48.704C73.3347 48.448 72.9187 48.32 72.3 48.32H70.604V51.264H72.3ZM89.1618 56.32C87.6471 56.32 86.3031 56.2133 85.1298 56C83.9564 55.7653 83.0178 55.4133 82.3138 54.944V49.824C82.9111 50.2933 83.7644 50.6667 84.8738 50.944C86.0044 51.2213 87.1458 51.36 88.2978 51.36C89.3218 51.36 89.9938 51.2853 90.3138 51.136C90.6338 50.9653 90.7938 50.7733 90.7938 50.56C90.7938 50.3253 90.6338 50.1333 90.3138 49.984C90.0151 49.8347 89.3431 49.76 88.2978 49.76H85.1938V45.6H88.0098C88.7351 45.6 89.2898 45.5467 89.6738 45.44C90.0791 45.3333 90.2818 45.12 90.2818 44.8C90.2818 44.5013 90.0898 44.2987 89.7058 44.192C89.3431 44.0853 88.7671 44.032 87.9778 44.032C86.9111 44.032 85.9511 44.1387 85.0978 44.352C84.2444 44.5653 83.3378 44.9493 82.3778 45.504V40.416C83.1671 39.9893 84.2018 39.6693 85.4818 39.456C86.7618 39.2213 88.0951 39.104 89.4818 39.104C92.1484 39.104 94.2071 39.4453 95.6578 40.128C97.1298 40.7893 97.8658 41.792 97.8658 43.136C97.8658 45.2053 96.5324 46.5493 93.8658 47.168C95.3378 47.3813 96.4578 47.7973 97.2258 48.416C98.0151 49.0347 98.4098 49.984 98.4098 51.264C98.4098 52.288 98.0258 53.184 97.2578 53.952C96.4898 54.6987 95.4124 55.2853 94.0258 55.712C92.6391 56.1173 91.0178 56.32 89.1618 56.32ZM109.333 56.32C107.52 56.32 105.856 56 104.341 55.36C102.848 54.6987 101.643 53.728 100.725 52.448C99.8293 51.168 99.3813 49.5787 99.3813 47.68C99.3813 45.8027 99.8293 44.2347 100.725 42.976C101.621 41.696 102.816 40.736 104.309 40.096C105.824 39.4347 107.488 39.104 109.301 39.104C111.136 39.104 112.8 39.4347 114.293 40.096C115.808 40.736 117.013 41.696 117.909 42.976C118.827 44.2347 119.285 45.8027 119.285 47.68C119.285 49.5787 118.837 51.168 117.941 52.448C117.045 53.728 115.84 54.6987 114.325 55.36C112.832 56 111.168 56.32 109.333 56.32ZM109.333 51.136C110.016 51.136 110.581 50.8587 111.029 50.304C111.499 49.728 111.733 48.8533 111.733 47.68C111.733 46.528 111.499 45.6747 111.029 45.12C110.581 44.5653 110.016 44.288 109.333 44.288C108.672 44.288 108.107 44.5653 107.637 45.12C107.168 45.6747 106.933 46.528 106.933 47.68C106.933 48.8533 107.168 49.728 107.637 50.304C108.107 50.8587 108.672 51.136 109.333 51.136ZM131.377 56H121.201V39.424H131.505C133.767 39.424 135.441 39.7653 136.529 40.448C137.639 41.1307 138.193 42.1973 138.193 43.648C138.193 44.6933 137.863 45.536 137.201 46.176C136.561 46.7947 135.729 47.2213 134.705 47.456C136.007 47.648 137.031 48.0427 137.777 48.64C138.524 49.2373 138.897 50.144 138.897 51.36C138.897 52.7467 138.268 53.8667 137.009 54.72C135.772 55.5733 133.895 56 131.377 56ZM129.617 43.584H128.241V45.856H129.617C130.599 45.856 131.089 45.4827 131.089 44.736C131.089 44.3733 130.983 44.096 130.769 43.904C130.556 43.6907 130.172 43.584 129.617 43.584ZM129.873 49.408H128.241V51.84H129.873C130.343 51.84 130.716 51.7547 130.993 51.584C131.271 51.392 131.409 51.0933 131.409 50.688C131.409 50.2613 131.292 49.9413 131.057 49.728C130.823 49.5147 130.428 49.408 129.873 49.408ZM147.336 44.288C146.248 44.288 145.138 44.3947 144.008 44.608C142.898 44.8 141.832 45.0773 140.808 45.44V40.256C141.768 39.8933 142.941 39.616 144.328 39.424C145.714 39.2107 147.144 39.104 148.616 39.104C150.472 39.104 152.061 39.328 153.384 39.776C154.728 40.2027 155.752 40.9173 156.456 41.92C157.181 42.9013 157.544 44.2347 157.544 45.92V53.344C157.544 53.6853 157.554 54.144 157.576 54.72C157.618 55.2747 157.661 55.7013 157.704 56H150.664C150.6 55.7013 150.536 55.36 150.472 54.976C150.429 54.5707 150.376 54.1653 150.312 53.76C149.906 54.4 149.288 54.9867 148.456 55.52C147.624 56.0533 146.493 56.32 145.064 56.32C144.125 56.32 143.24 56.1707 142.408 55.872C141.597 55.552 140.936 55.0507 140.424 54.368C139.933 53.6853 139.688 52.7893 139.688 51.68C139.688 49.8667 140.456 48.448 141.992 47.424C143.528 46.4 145.96 45.888 149.288 45.888H150.12C150.034 45.3973 149.842 45.0453 149.544 44.832C149.245 44.5973 148.893 44.448 148.488 44.384C148.104 44.32 147.72 44.288 147.336 44.288ZM150.152 50.016V49.088H149.192C148.338 49.088 147.752 49.2373 147.432 49.536C147.133 49.8347 146.984 50.1973 146.984 50.624C146.984 51.072 147.122 51.424 147.4 51.68C147.677 51.9147 148.04 52.032 148.488 52.032C149.064 52.032 149.48 51.8507 149.736 51.488C150.013 51.104 150.152 50.6133 150.152 50.016ZM158.458 39.424H175.194V44.768H170.522V56H163.098V44.768H158.458V39.424ZM186.416 56.32C183.92 56.32 181.883 55.9467 180.304 55.2C178.726 54.4533 177.563 53.4293 176.816 52.128C176.07 50.8267 175.696 49.344 175.696 47.68C175.696 45.952 176.07 44.448 176.816 43.168C177.584 41.8667 178.662 40.864 180.048 40.16C181.456 39.456 183.131 39.104 185.072 39.104C187.291 39.104 189.115 39.52 190.544 40.352C191.974 41.1627 192.966 42.336 193.52 43.872C194.096 45.3867 194.203 47.1893 193.84 49.28H183.12C183.355 50.0267 183.792 50.5707 184.432 50.912C185.094 51.2533 186.096 51.424 187.44 51.424C188.208 51.424 188.966 51.3813 189.712 51.296C190.48 51.1893 191.472 50.976 192.688 50.656V55.488C191.899 55.808 190.982 56.0213 189.936 56.128C188.912 56.256 187.739 56.32 186.416 56.32ZM185.2 43.008C184.518 43.008 184.006 43.2427 183.664 43.712C183.323 44.16 183.099 44.8107 182.992 45.664H187.152C187.11 43.8933 186.459 43.008 185.2 43.008ZM194.678 50.08C195.382 50.2293 195.915 50.144 196.278 49.824C196.64 49.4827 196.896 48.832 197.046 47.872C197.195 46.9333 197.291 45.824 197.334 44.544C197.398 43.264 197.43 41.5573 197.43 39.424H213.174V56H205.75V44.768H203.254C203.19 46.3893 203.094 47.7227 202.966 48.768C202.859 49.8133 202.699 50.7093 202.486 51.456C201.952 53.4187 201.014 54.784 199.67 55.552C198.347 56.32 196.683 56.4693 194.678 56V50.08ZM225.824 56.32C223.328 56.32 221.29 55.9467 219.712 55.2C218.133 54.4533 216.97 53.4293 216.224 52.128C215.477 50.8267 215.104 49.344 215.104 47.68C215.104 45.952 215.477 44.448 216.224 43.168C216.992 41.8667 218.069 40.864 219.456 40.16C220.864 39.456 222.538 39.104 224.48 39.104C226.698 39.104 228.522 39.52 229.952 40.352C231.381 41.1627 232.373 42.336 232.928 43.872C233.504 45.3867 233.61 47.1893 233.248 49.28H222.528C222.762 50.0267 223.2 50.5707 223.84 50.912C224.501 51.2533 225.504 51.424 226.848 51.424C227.616 51.424 228.373 51.3813 229.12 51.296C229.888 51.1893 230.88 50.976 232.096 50.656V55.488C231.306 55.808 230.389 56.0213 229.344 56.128C228.32 56.256 227.146 56.32 225.824 56.32ZM224.608 43.008C223.925 43.008 223.413 43.2427 223.072 43.712C222.73 44.16 222.506 44.8107 222.4 45.664H226.56C226.517 43.8933 225.866 43.008 224.608 43.008ZM244.265 38.048C242.793 38.048 241.566 37.792 240.585 37.28C239.625 36.768 238.899 36.0853 238.409 35.232C237.939 34.3573 237.705 33.3867 237.705 32.32H243.017C243.017 33.4293 243.433 33.984 244.265 33.984C244.627 33.984 244.915 33.8453 245.129 33.568C245.363 33.2907 245.481 32.8747 245.481 32.32H250.793C250.793 33.3867 250.547 34.3573 250.057 35.232C249.566 36.0853 248.841 36.768 247.881 37.28C246.921 37.792 245.715 38.048 244.265 38.048ZM242.281 39.424V47.136L246.633 39.424H253.737V56H246.537V48.256L242.153 56H235.049V39.424H242.281ZM5.664 93.952C4.81067 93.952 4.064 93.8987 3.424 93.792C2.80533 93.7067 2.048 93.5253 1.152 93.248V88.128C1.64267 88.3413 2.21867 88.512 2.88 88.64C3.54133 88.768 4.16 88.832 4.736 88.832C5.65333 88.832 6.38933 88.6613 6.944 88.32L0.576 71.424H8L11.008 80.384L13.984 71.424H20.512L14.336 87.808C13.7173 89.3867 13.0453 90.624 12.32 91.52C11.5947 92.416 10.7093 93.0453 9.664 93.408C8.61867 93.7707 7.28533 93.952 5.664 93.952ZM20.02 88L24.948 79.392L20.5 71.424H27.444L30.676 77.184H31.412V71.424H38.836V77.184H39.444L42.804 71.424H49.652L45.46 79.296L50.196 88H42.068L39.316 82.208H38.836V88H31.412V82.208H30.932L27.956 88H20.02ZM60.115 88.32C57.619 88.32 55.5817 87.9467 54.003 87.2C52.4243 86.4533 51.2617 85.4293 50.515 84.128C49.7683 82.8267 49.395 81.344 49.395 79.68C49.395 77.952 49.7683 76.448 50.515 75.168C51.283 73.8667 52.3603 72.864 53.747 72.16C55.155 71.456 56.8297 71.104 58.771 71.104C60.9897 71.104 62.8137 71.52 64.243 72.352C65.6723 73.1627 66.6643 74.336 67.219 75.872C67.795 77.3867 67.9017 79.1893 67.539 81.28H56.819C57.0537 82.0267 57.491 82.5707 58.131 82.912C58.7923 83.2533 59.795 83.424 61.139 83.424C61.907 83.424 62.6643 83.3813 63.411 83.296C64.179 83.1893 65.171 82.976 66.387 82.656V87.488C65.5977 87.808 64.6803 88.0213 63.635 88.128C62.611 88.256 61.4377 88.32 60.115 88.32ZM58.899 75.008C58.2163 75.008 57.7043 75.2427 57.363 75.712C57.0217 76.16 56.7977 76.8107 56.691 77.664H60.851C60.8083 75.8933 60.1577 75.008 58.899 75.008ZM85.0948 88H74.9188V71.424H85.2228C87.4841 71.424 89.1588 71.7653 90.2468 72.448C91.3561 73.1307 91.9108 74.1973 91.9108 75.648C91.9108 76.6933 91.5801 77.536 90.9188 78.176C90.2788 78.7947 89.4468 79.2213 88.4228 79.456C89.7241 79.648 90.7481 80.0427 91.4948 80.64C92.2414 81.2373 92.6148 82.144 92.6148 83.36C92.6148 84.7467 91.9854 85.8667 90.7268 86.72C89.4894 87.5733 87.6121 88 85.0948 88ZM83.3348 75.584H81.9588V77.856H83.3348C84.3161 77.856 84.8068 77.4827 84.8068 76.736C84.8068 76.3733 84.7001 76.096 84.4868 75.904C84.2734 75.6907 83.8894 75.584 83.3348 75.584ZM83.5908 81.408H81.9588V83.84H83.5908C84.0601 83.84 84.4334 83.7547 84.7108 83.584C84.9881 83.392 85.1268 83.0933 85.1268 82.688C85.1268 82.2613 85.0094 81.9413 84.7748 81.728C84.5401 81.5147 84.1454 81.408 83.5908 81.408ZM99.795 71.424H107.219V77.184H108.467L112.115 71.424H118.899L114.291 78.912L119.795 88H111.411L108.307 82.528H107.219V88H99.795V71.424ZM119.941 82.08C120.645 82.2293 121.179 82.144 121.541 81.824C121.904 81.4827 122.16 80.832 122.309 79.872C122.459 78.9333 122.555 77.824 122.597 76.544C122.661 75.264 122.693 73.5573 122.693 71.424H138.437V88H131.013V76.768H128.517C128.453 78.3893 128.357 79.7227 128.229 80.768C128.123 81.8133 127.963 82.7093 127.749 83.456C127.216 85.4187 126.277 86.784 124.933 87.552C123.611 88.32 121.947 88.4693 119.941 88V82.08ZM144.763 93.952C143.909 93.952 143.163 93.8987 142.523 93.792C141.904 93.7067 141.147 93.5253 140.251 93.248V88.128C140.741 88.3413 141.317 88.512 141.979 88.64C142.64 88.768 143.259 88.832 143.835 88.832C144.752 88.832 145.488 88.6613 146.043 88.32L139.675 71.424H147.099L150.107 80.384L153.083 71.424H159.611L153.435 87.808C152.816 89.3867 152.144 90.624 151.419 91.52C150.693 92.416 149.808 93.0453 148.763 93.408C147.717 93.7707 146.384 93.952 144.763 93.952ZM171.979 71.904C173.664 71.904 175.072 72.2453 176.203 72.928C177.355 73.6107 178.219 74.5387 178.795 75.712C179.392 76.864 179.691 78.1547 179.691 79.584C179.691 81.4187 179.254 82.9867 178.379 84.288C177.526 85.5893 176.363 86.592 174.891 87.296C173.44 87.9787 171.808 88.32 169.995 88.32C168.139 88.32 166.454 87.9253 164.939 87.136C163.446 86.3253 162.262 85.0987 161.387 83.456C160.512 81.792 160.075 79.68 160.075 77.12C160.075 72.832 161.184 69.6107 163.403 67.456C164.427 66.4747 165.622 65.76 166.987 65.312C168.374 64.864 170.144 64.608 172.299 64.544C173.984 64.5013 175.286 64.4373 176.203 64.352C177.142 64.2667 177.899 64.1387 178.475 63.968V69.632C178.176 69.76 177.792 69.8667 177.323 69.952C176.875 70.016 176.278 70.08 175.531 70.144C174.806 70.1867 173.856 70.2293 172.683 70.272C170.934 70.336 169.611 70.5387 168.715 70.88C167.819 71.2213 167.126 71.776 166.635 72.544C166.272 73.184 166.006 74.016 165.835 75.04C166.347 74.08 167.126 73.3227 168.171 72.768C169.216 72.192 170.486 71.904 171.979 71.904ZM169.867 83.136C170.55 83.136 171.083 82.8693 171.467 82.336C171.851 81.7813 172.043 81.0027 172.043 80C172.043 78.9973 171.851 78.2187 171.467 77.664C171.083 77.1093 170.55 76.832 169.867 76.832C169.206 76.832 168.683 77.1093 168.299 77.664C167.936 78.2187 167.755 78.9973 167.755 80C167.755 81.0027 167.936 81.7813 168.299 82.336C168.683 82.8693 169.206 83.136 169.867 83.136ZM191.37 88.32C188.874 88.32 186.837 87.9467 185.258 87.2C183.679 86.4533 182.517 85.4293 181.77 84.128C181.023 82.8267 180.65 81.344 180.65 79.68C180.65 77.952 181.023 76.448 181.77 75.168C182.538 73.8667 183.615 72.864 185.002 72.16C186.41 71.456 188.085 71.104 190.026 71.104C192.245 71.104 194.069 71.52 195.498 72.352C196.927 73.1627 197.919 74.336 198.474 75.872C199.05 77.3867 199.157 79.1893 198.794 81.28H188.074C188.309 82.0267 188.746 82.5707 189.386 82.912C190.047 83.2533 191.05 83.424 192.394 83.424C193.162 83.424 193.919 83.3813 194.666 83.296C195.434 83.1893 196.426 82.976 197.642 82.656V87.488C196.853 87.808 195.935 88.0213 194.89 88.128C193.866 88.256 192.693 88.32 191.37 88.32ZM190.154 75.008C189.471 75.008 188.959 75.2427 188.618 75.712C188.277 76.16 188.053 76.8107 187.946 77.664H192.106C192.063 75.8933 191.413 75.008 190.154 75.008ZM8.992 103.424V111.136L13.344 103.424H20.448V120H13.248V112.256L8.864 120H1.76V103.424H8.992ZM34.045 120.32C32.7863 120.32 31.6343 120.192 30.589 119.936C29.5437 119.68 28.7223 119.328 28.125 118.88V113.728C28.8717 114.261 29.6077 114.635 30.333 114.848C31.0797 115.04 32.0077 115.136 33.117 115.136C34.0983 115.136 34.877 115.019 35.453 114.784C36.0503 114.528 36.4877 114.144 36.765 113.632H31.485V109.696H36.733C36.1783 108.757 35.0263 108.288 33.277 108.288C32.189 108.288 31.2717 108.395 30.525 108.608C29.7783 108.8 28.9783 109.163 28.125 109.696V104.544C29.725 103.584 31.7197 103.104 34.109 103.104C36.1143 103.104 37.8743 103.445 39.389 104.128C40.9037 104.811 42.0877 105.792 42.941 107.072C43.7943 108.352 44.221 109.888 44.221 111.68C44.221 113.493 43.805 115.051 42.973 116.352C42.141 117.632 40.9677 118.613 39.453 119.296C37.9383 119.979 36.1357 120.32 34.045 120.32ZM46.1525 103.424H53.5765V109.184H54.8245L58.4725 103.424H65.2565L60.6485 110.912L66.1525 120H57.7685L54.6645 114.528H53.5765V120H46.1525V103.424ZM75.2858 120.32C73.4724 120.32 71.8084 120 70.2938 119.36C68.8004 118.699 67.5951 117.728 66.6778 116.448C65.7818 115.168 65.3338 113.579 65.3338 111.68C65.3338 109.803 65.7818 108.235 66.6778 106.976C67.5738 105.696 68.7684 104.736 70.2618 104.096C71.7764 103.435 73.4404 103.104 75.2538 103.104C77.0884 103.104 78.7524 103.435 80.2458 104.096C81.7604 104.736 82.9658 105.696 83.8618 106.976C84.7791 108.235 85.2378 109.803 85.2378 111.68C85.2378 113.579 84.7898 115.168 83.8938 116.448C82.9978 117.728 81.7924 118.699 80.2778 119.36C78.7844 120 77.1204 120.32 75.2858 120.32ZM75.2858 115.136C75.9684 115.136 76.5338 114.859 76.9818 114.304C77.4511 113.728 77.6858 112.853 77.6858 111.68C77.6858 110.528 77.4511 109.675 76.9818 109.12C76.5338 108.565 75.9684 108.288 75.2858 108.288C74.6244 108.288 74.0591 108.565 73.5898 109.12C73.1204 109.675 72.8858 110.528 72.8858 111.68C72.8858 112.853 73.1204 113.728 73.5898 114.304C74.0591 114.859 74.6244 115.136 75.2858 115.136ZM94.5778 103.424V109.024H97.9698V103.424H105.394V120H97.9698V114.368H94.5778V120H87.1538V103.424H94.5778ZM117.256 120.32C115.442 120.32 113.778 120 112.264 119.36C110.77 118.699 109.565 117.728 108.648 116.448C107.752 115.168 107.304 113.579 107.304 111.68C107.304 109.803 107.752 108.235 108.648 106.976C109.544 105.696 110.738 104.736 112.232 104.096C113.746 103.435 115.41 103.104 117.224 103.104C119.058 103.104 120.722 103.435 122.216 104.096C123.73 104.736 124.936 105.696 125.832 106.976C126.749 108.235 127.208 109.803 127.208 111.68C127.208 113.579 126.76 115.168 125.864 116.448C124.968 117.728 123.762 118.699 122.248 119.36C120.754 120 119.09 120.32 117.256 120.32ZM117.256 115.136C117.938 115.136 118.504 114.859 118.952 114.304C119.421 113.728 119.656 112.853 119.656 111.68C119.656 110.528 119.421 109.675 118.952 109.12C118.504 108.565 117.938 108.288 117.256 108.288C116.594 108.288 116.029 108.565 115.56 109.12C115.09 109.675 114.856 110.528 114.856 111.68C114.856 112.853 115.09 113.728 115.56 114.304C116.029 114.859 116.594 115.136 117.256 115.136ZM129.124 103.424H137.796L140.612 110.88L143.78 103.424H152.676L152.868 120H145.412V111.968L142.436 119.424H137.668L134.852 111.936V120H129.124V103.424ZM153.978 120L158.362 113.92C156.228 113.131 155.162 111.616 155.162 109.376C155.162 107.477 155.791 106.016 157.05 104.992C158.33 103.947 160.292 103.424 162.938 103.424H173.402V120H165.978V115.392H164.73L161.53 120H153.978ZM164.442 108.16C163.908 108.16 163.471 108.288 163.13 108.544C162.81 108.8 162.65 109.205 162.65 109.76C162.65 110.272 162.788 110.677 163.066 110.976C163.343 111.275 163.78 111.424 164.378 111.424H165.978V108.16H164.442ZM175.161 103.424H191.897V108.768H187.225V120H179.801V108.768H175.161V103.424ZM9.184 135.424V141.024H12.576V135.424H20V152H12.576V146.368H9.184V152H1.76V135.424H9.184ZM29.3943 140.288C28.3063 140.288 27.1969 140.395 26.0663 140.608C24.9569 140.8 23.8903 141.077 22.8663 141.44V136.256C23.8263 135.893 24.9996 135.616 26.3863 135.424C27.7729 135.211 29.2023 135.104 30.6743 135.104C32.5303 135.104 34.1196 135.328 35.4423 135.776C36.7863 136.203 37.8103 136.917 38.5143 137.92C39.2396 138.901 39.6023 140.235 39.6023 141.92V149.344C39.6023 149.685 39.6129 150.144 39.6343 150.72C39.6769 151.275 39.7196 151.701 39.7623 152H32.7223C32.6583 151.701 32.5943 151.36 32.5303 150.976C32.4876 150.571 32.4343 150.165 32.3703 149.76C31.9649 150.4 31.3463 150.987 30.5143 151.52C29.6823 152.053 28.5516 152.32 27.1223 152.32C26.1836 152.32 25.2983 152.171 24.4663 151.872C23.6556 151.552 22.9943 151.051 22.4823 150.368C21.9916 149.685 21.7463 148.789 21.7463 147.68C21.7463 145.867 22.5143 144.448 24.0503 143.424C25.5863 142.4 28.0183 141.888 31.3463 141.888H32.1783C32.0929 141.397 31.9009 141.045 31.6023 140.832C31.3036 140.597 30.9516 140.448 30.5463 140.384C30.1623 140.32 29.7783 140.288 29.3943 140.288ZM32.2103 146.016V145.088H31.2503C30.3969 145.088 29.8103 145.237 29.4903 145.536C29.1916 145.835 29.0423 146.197 29.0423 146.624C29.0423 147.072 29.1809 147.424 29.4583 147.68C29.7356 147.915 30.0983 148.032 30.5463 148.032C31.1223 148.032 31.5383 147.851 31.7943 147.488C32.0716 147.104 32.2103 146.613 32.2103 146.016ZM47.215 152V135.424H65.263V152H57.839V140.768H54.639V152H47.215ZM77.1295 152.32C75.3162 152.32 73.6522 152 72.1375 151.36C70.6442 150.699 69.4388 149.728 68.5215 148.448C67.6255 147.168 67.1775 145.579 67.1775 143.68C67.1775 141.803 67.6255 140.235 68.5215 138.976C69.4175 137.696 70.6122 136.736 72.1055 136.096C73.6202 135.435 75.2842 135.104 77.0975 135.104C78.9322 135.104 80.5962 135.435 82.0895 136.096C83.6042 136.736 84.8095 137.696 85.7055 138.976C86.6228 140.235 87.0815 141.803 87.0815 143.68C87.0815 145.579 86.6335 147.168 85.7375 148.448C84.8415 149.728 83.6362 150.699 82.1215 151.36C80.6282 152 78.9642 152.32 77.1295 152.32ZM77.1295 147.136C77.8122 147.136 78.3775 146.859 78.8255 146.304C79.2948 145.728 79.5295 144.853 79.5295 143.68C79.5295 142.528 79.2948 141.675 78.8255 141.12C78.3775 140.565 77.8122 140.288 77.1295 140.288C76.4682 140.288 75.9028 140.565 75.4335 141.12C74.9642 141.675 74.7295 142.528 74.7295 143.68C74.7295 144.853 74.9642 145.728 75.4335 146.304C75.9028 146.859 76.4682 147.136 77.1295 147.136ZM98.7575 152.32C96.2615 152.32 94.2242 151.947 92.6455 151.2C91.0668 150.453 89.9042 149.429 89.1575 148.128C88.4108 146.827 88.0375 145.344 88.0375 143.68C88.0375 141.952 88.4108 140.448 89.1575 139.168C89.9255 137.867 91.0028 136.864 92.3895 136.16C93.7975 135.456 95.4722 135.104 97.4135 135.104C99.6322 135.104 101.456 135.52 102.886 136.352C104.315 137.163 105.307 138.336 105.862 139.872C106.438 141.387 106.544 143.189 106.182 145.28H95.4615C95.6962 146.027 96.1335 146.571 96.7735 146.912C97.4348 147.253 98.4375 147.424 99.7815 147.424C100.55 147.424 101.307 147.381 102.054 147.296C102.822 147.189 103.814 146.976 105.03 146.656V151.488C104.24 151.808 103.323 152.021 102.278 152.128C101.254 152.256 100.08 152.32 98.7575 152.32ZM97.5415 139.008C96.8588 139.008 96.3468 139.243 96.0055 139.712C95.6642 140.16 95.4402 140.811 95.3335 141.664H99.4935C99.4508 139.893 98.8002 139.008 97.5415 139.008ZM114.507 152.32C112.992 152.32 111.648 152.213 110.475 152C109.301 151.765 108.363 151.413 107.659 150.944V145.824C108.256 146.293 109.109 146.667 110.219 146.944C111.349 147.221 112.491 147.36 113.643 147.36C114.667 147.36 115.339 147.285 115.659 147.136C115.979 146.965 116.139 146.773 116.139 146.56C116.139 146.325 115.979 146.133 115.659 145.984C115.36 145.835 114.688 145.76 113.643 145.76H110.539V141.6H113.355C114.08 141.6 114.635 141.547 115.019 141.44C115.424 141.333 115.627 141.12 115.627 140.8C115.627 140.501 115.435 140.299 115.051 140.192C114.688 140.085 114.112 140.032 113.323 140.032C112.256 140.032 111.296 140.139 110.443 140.352C109.589 140.565 108.683 140.949 107.723 141.504V136.416C108.512 135.989 109.547 135.669 110.827 135.456C112.107 135.221 113.44 135.104 114.827 135.104C117.493 135.104 119.552 135.445 121.003 136.128C122.475 136.789 123.211 137.792 123.211 139.136C123.211 141.205 121.877 142.549 119.211 143.168C120.683 143.381 121.803 143.797 122.571 144.416C123.36 145.035 123.755 145.984 123.755 147.264C123.755 148.288 123.371 149.184 122.603 149.952C121.835 150.699 120.757 151.285 119.371 151.712C117.984 152.117 116.363 152.32 114.507 152.32ZM130.735 156.736H124.399V146.656H126.063C126.745 145.589 127.225 144.149 127.503 142.336C127.801 140.523 127.951 138.219 127.951 135.424H143.727V146.656H146.255V156.736H139.887L139.695 152H130.959L130.735 156.736ZM136.463 140.768H133.487C133.295 143.179 132.932 145.141 132.399 146.656H136.463V140.768ZM147.734 135.424H155.158V141.184H156.406L160.054 135.424H166.838L162.23 142.912L167.734 152H159.35L156.246 146.528H155.158V152H147.734V135.424ZM175.368 140.288C174.28 140.288 173.171 140.395 172.04 140.608C170.931 140.8 169.864 141.077 168.84 141.44V136.256C169.8 135.893 170.973 135.616 172.36 135.424C173.747 135.211 175.176 135.104 176.648 135.104C178.504 135.104 180.093 135.328 181.416 135.776C182.76 136.203 183.784 136.917 184.488 137.92C185.213 138.901 185.576 140.235 185.576 141.92V149.344C185.576 149.685 185.587 150.144 185.608 150.72C185.651 151.275 185.693 151.701 185.736 152H178.696C178.632 151.701 178.568 151.36 178.504 150.976C178.461 150.571 178.408 150.165 178.344 149.76C177.939 150.4 177.32 150.987 176.488 151.52C175.656 152.053 174.525 152.32 173.096 152.32C172.157 152.32 171.272 152.171 170.44 151.872C169.629 151.552 168.968 151.051 168.456 150.368C167.965 149.685 167.72 148.789 167.72 147.68C167.72 145.867 168.488 144.448 170.024 143.424C171.56 142.4 173.992 141.888 177.32 141.888H178.152C178.067 141.397 177.875 141.045 177.576 140.832C177.277 140.597 176.925 140.448 176.52 140.384C176.136 140.32 175.752 140.288 175.368 140.288ZM178.184 146.016V145.088H177.224C176.371 145.088 175.784 145.237 175.464 145.536C175.165 145.835 175.016 146.197 175.016 146.624C175.016 147.072 175.155 147.424 175.432 147.68C175.709 147.915 176.072 148.032 176.52 148.032C177.096 148.032 177.512 147.851 177.768 147.488C178.045 147.104 178.184 146.613 178.184 146.016ZM186.323 135.424H194.643L197.139 139.52L199.475 135.424H206.355L200.947 144.16L206.547 152H198.227L195.507 147.712L193.011 152H186.163L191.731 143.008L186.323 135.424Z" fill="#21201F"/>
</svg>
