<svg width="260" height="121" viewBox="0 0 260 121" fill="none" xmlns="http://www.w3.org/2000/svg">
<path d="M8.192 24.384C6.74133 24.384 5.376 24.288 4.096 24.096C2.83733 23.904 1.89867 23.648 1.28 23.328V17.888C1.77067 18.0373 2.38933 18.1867 3.136 18.336C3.904 18.464 4.69333 18.5707 5.504 18.656C6.336 18.7413 7.08267 18.784 7.744 18.784C9.55733 18.784 10.9227 18.496 11.84 17.92C12.7573 17.344 13.376 16.48 13.696 15.328H5.216V9.728H13.6C13.2373 8.59733 12.5653 7.75467 11.584 7.2C10.624 6.624 9.25867 6.336 7.488 6.336C6.656 6.336 5.824 6.38933 4.992 6.496C4.18133 6.58133 3.456 6.70933 2.816 6.88C2.176 7.05067 1.68533 7.25333 1.344 7.488V2.08C1.664 1.80267 2.16533 1.568 2.848 1.376C3.552 1.184 4.36267 1.03467 5.28 0.927999C6.21867 0.799999 7.18933 0.735998 8.192 0.735998C10.9653 0.735998 13.344 1.216 15.328 2.176C17.3333 3.11467 18.8693 4.46933 19.936 6.24C21.024 7.98933 21.568 10.1013 21.568 12.576C21.568 16.2667 20.4373 19.1573 18.176 21.248C15.9147 23.3387 12.5867 24.384 8.192 24.384ZM23.6513 7.424H31.0753V13.184H32.3233L35.9713 7.424H42.7553L38.1473 14.912L43.6513 24H35.2673L32.1633 18.528H31.0753V24H23.6513V7.424ZM52.9125 24.32C50.8645 24.32 49.0832 23.9787 47.5685 23.296C46.0538 22.6133 44.8805 21.632 44.0485 20.352C43.2378 19.0507 42.8325 17.4933 42.8325 15.68C42.8325 13.888 43.2485 12.352 44.0805 11.072C44.9125 9.792 46.0752 8.81067 47.5685 8.128C49.0618 7.44533 50.8112 7.104 52.8165 7.104C55.3978 7.104 57.2752 7.488 58.4485 8.256V13.44C57.2112 12.672 55.7818 12.288 54.1605 12.288C53.0085 12.288 52.1125 12.576 51.4725 13.152C50.8325 13.7067 50.5125 14.5493 50.5125 15.68C50.5125 16.832 50.8432 17.696 51.5045 18.272C52.1872 18.848 53.1045 19.136 54.2565 19.136C55.9845 19.136 57.3818 18.752 58.4485 17.984V23.168C58.0432 23.5093 57.3498 23.7867 56.3685 24C55.3872 24.2133 54.2352 24.32 52.9125 24.32ZM60.6838 7.424H68.1078V13.184H69.3558L73.0038 7.424H79.7878L75.1798 14.912L80.6838 24H72.2998L69.1958 18.528H68.1078V24H60.6838V7.424ZM80.83 18.08C81.534 18.2293 82.0673 18.144 82.43 17.824C82.7927 17.4827 83.0487 16.832 83.198 15.872C83.3473 14.9333 83.4433 13.824 83.486 12.544C83.55 11.264 83.582 9.55733 83.582 7.424H99.326V24H91.902V12.768H89.406C89.342 14.3893 89.246 15.7227 89.118 16.768C89.0113 17.8133 88.8513 18.7093 88.638 19.456C88.1047 21.4187 87.166 22.784 85.822 23.552C84.4993 24.32 82.8353 24.4693 80.83 24V18.08ZM109.64 7.424V13.12H110.76C111.123 11.7973 111.752 10.688 112.648 9.792C113.544 8.896 114.622 8.224 115.88 7.776C117.16 7.328 118.536 7.104 120.008 7.104C121.779 7.104 123.39 7.43467 124.84 8.096C126.312 8.736 127.486 9.696 128.36 10.976C129.235 12.2347 129.672 13.8027 129.672 15.68C129.672 17.5787 129.235 19.168 128.36 20.448C127.507 21.728 126.344 22.6987 124.872 23.36C123.422 24 121.811 24.32 120.04 24.32C118.568 24.32 117.192 24.096 115.912 23.648C114.654 23.2 113.566 22.528 112.648 21.632C111.752 20.7147 111.123 19.5947 110.76 18.272H109.64V24H102.216V7.424H109.64ZM120.04 19.136C120.616 19.136 121.107 18.8587 121.512 18.304C121.918 17.728 122.12 16.8533 122.12 15.68C122.12 14.528 121.918 13.6747 121.512 13.12C121.107 12.5653 120.616 12.288 120.04 12.288C119.464 12.288 118.974 12.5653 118.568 13.12C118.163 13.6747 117.96 14.528 117.96 15.68C117.96 16.8533 118.163 17.728 118.568 18.304C118.974 18.8587 119.464 19.136 120.04 19.136ZM137.819 24.32C136.305 24.32 134.961 24.2133 133.787 24C132.614 23.7653 131.675 23.4133 130.971 22.944V17.824C131.569 18.2933 132.422 18.6667 133.531 18.944C134.662 19.2213 135.803 19.36 136.955 19.36C137.979 19.36 138.651 19.2853 138.971 19.136C139.291 18.9653 139.451 18.7733 139.451 18.56C139.451 18.3253 139.291 18.1333 138.971 17.984C138.673 17.8347 138.001 17.76 136.955 17.76H133.851V13.6H136.667C137.393 13.6 137.947 13.5467 138.331 13.44C138.737 13.3333 138.939 13.12 138.939 12.8C138.939 12.5013 138.747 12.2987 138.363 12.192C138.001 12.0853 137.425 12.032 136.635 12.032C135.569 12.032 134.609 12.1387 133.755 12.352C132.902 12.5653 131.995 12.9493 131.035 13.504V8.416C131.825 7.98933 132.859 7.66933 134.139 7.456C135.419 7.22133 136.753 7.104 138.139 7.104C140.806 7.104 142.865 7.44533 144.315 8.128C145.787 8.78933 146.523 9.792 146.523 11.136C146.523 13.2053 145.19 14.5493 142.523 15.168C143.995 15.3813 145.115 15.7973 145.883 16.416C146.673 17.0347 147.067 17.984 147.067 19.264C147.067 20.288 146.683 21.184 145.915 21.952C145.147 22.6987 144.07 23.2853 142.683 23.712C141.297 24.1173 139.675 24.32 137.819 24.32ZM156.231 7.424V15.136L160.583 7.424H167.687V24H160.487V16.256L156.103 24H148.999V7.424H156.231ZM180.754 24H170.578V7.424H180.882C183.143 7.424 184.818 7.76533 185.906 8.448C187.015 9.13067 187.57 10.1973 187.57 11.648C187.57 12.6933 187.239 13.536 186.578 14.176C185.938 14.7947 185.106 15.2213 184.082 15.456C185.383 15.648 186.407 16.0427 187.154 16.64C187.9 17.2373 188.274 18.144 188.274 19.36C188.274 20.7467 187.644 21.8667 186.386 22.72C185.148 23.5733 183.271 24 180.754 24ZM178.994 11.584H177.618V13.856H178.994C179.975 13.856 180.466 13.4827 180.466 12.736C180.466 12.3733 180.359 12.096 180.146 11.904C179.932 11.6907 179.548 11.584 178.994 11.584ZM179.25 17.408H177.618V19.84H179.25C179.719 19.84 180.092 19.7547 180.37 19.584C180.647 19.392 180.786 19.0933 180.786 18.688C180.786 18.2613 180.668 17.9413 180.434 17.728C180.199 17.5147 179.804 17.408 179.25 17.408ZM197.612 7.424V13.024H201.004V7.424H208.428V24H201.004V18.368H197.612V24H190.188V7.424H197.612ZM218.722 7.424V11.616H221.666C224.076 11.616 225.932 12.1707 227.234 13.28C228.556 14.3893 229.218 15.8507 229.218 17.664C229.218 18.944 228.898 20.064 228.258 21.024C227.618 21.9627 226.743 22.6987 225.634 23.232C224.524 23.744 223.244 24 221.794 24H211.298V7.424H218.722ZM237.506 7.424V24H230.114V7.424H237.506ZM220.322 19.264C221.388 19.264 221.922 18.784 221.922 17.824C221.922 17.3333 221.804 16.96 221.57 16.704C221.356 16.448 220.94 16.32 220.322 16.32H218.722V19.264H220.322ZM249.592 6.048C248.12 6.048 246.894 5.792 245.912 5.28C244.952 4.768 244.227 4.08533 243.736 3.232C243.267 2.35733 243.032 1.38667 243.032 0.32H248.344C248.344 1.42933 248.76 1.984 249.592 1.984C249.955 1.984 250.243 1.84533 250.456 1.568C250.691 1.29067 250.808 0.874666 250.808 0.32H256.12C256.12 1.38667 255.875 2.35733 255.384 3.232C254.894 4.08533 254.168 4.768 253.208 5.28C252.248 5.792 251.043 6.048 249.592 6.048ZM247.608 7.424V15.136L251.96 7.424H259.064V24H251.864V16.256L247.48 24H240.376V7.424H247.608ZM6.496 60.736H0.16V50.656H1.824C2.50667 49.5893 2.98667 48.1493 3.264 46.336C3.56267 44.5227 3.712 42.2187 3.712 39.424H19.488V50.656H22.016V60.736H15.648L15.456 56H6.72L6.496 60.736ZM12.224 44.768H9.248C9.056 47.1787 8.69333 49.1413 8.16 50.656H12.224V44.768ZM32.0183 56.32C30.2049 56.32 28.5409 56 27.0263 55.36C25.5329 54.6987 24.3276 53.728 23.4103 52.448C22.5143 51.168 22.0663 49.5787 22.0663 47.68C22.0663 45.8027 22.5143 44.2347 23.4103 42.976C24.3063 41.696 25.5009 40.736 26.9943 40.096C28.5089 39.4347 30.1729 39.104 31.9863 39.104C33.8209 39.104 35.4849 39.4347 36.9783 40.096C38.4929 40.736 39.6983 41.696 40.5943 42.976C41.5116 44.2347 41.9703 45.8027 41.9703 47.68C41.9703 49.5787 41.5223 51.168 40.6263 52.448C39.7303 53.728 38.5249 54.6987 37.0103 55.36C35.5169 56 33.8529 56.32 32.0183 56.32ZM32.0183 51.136C32.7009 51.136 33.2663 50.8587 33.7143 50.304C34.1836 49.728 34.4183 48.8533 34.4183 47.68C34.4183 46.528 34.1836 45.6747 33.7143 45.12C33.2663 44.5653 32.7009 44.288 32.0183 44.288C31.3569 44.288 30.7916 44.5653 30.3223 45.12C29.8529 45.6747 29.6183 46.528 29.6183 47.68C29.6183 48.8533 29.8529 49.728 30.3223 50.304C30.7916 50.8587 31.3569 51.136 32.0183 51.136ZM53.0063 56.32C50.9583 56.32 49.1769 55.9787 47.6623 55.296C46.1476 54.6133 44.9743 53.632 44.1423 52.352C43.3316 51.0507 42.9263 49.4933 42.9263 47.68C42.9263 45.888 43.3423 44.352 44.1743 43.072C45.0063 41.792 46.1689 40.8107 47.6623 40.128C49.1556 39.4453 50.9049 39.104 52.9103 39.104C55.4916 39.104 57.3689 39.488 58.5423 40.256V45.44C57.3049 44.672 55.8756 44.288 54.2543 44.288C53.1023 44.288 52.2063 44.576 51.5663 45.152C50.9263 45.7067 50.6063 46.5493 50.6063 47.68C50.6063 48.832 50.9369 49.696 51.5983 50.272C52.2809 50.848 53.1983 51.136 54.3503 51.136C56.0783 51.136 57.4756 50.752 58.5423 49.984V55.168C58.1369 55.5093 57.4436 55.7867 56.4623 56C55.4809 56.2133 54.3289 56.32 53.0063 56.32ZM59.6575 39.424H76.3935V44.768H71.7215V56H64.2975V44.768H59.6575V39.424ZM81.9165 61.952C81.0632 61.952 80.3165 61.8987 79.6765 61.792C79.0578 61.7067 78.3005 61.5253 77.4045 61.248V56.128C77.8952 56.3413 78.4712 56.512 79.1325 56.64C79.7938 56.768 80.4125 56.832 80.9885 56.832C81.9058 56.832 82.6418 56.6613 83.1965 56.32L76.8285 39.424H84.2525L87.2605 48.384L90.2365 39.424H96.7645L90.5885 55.808C89.9698 57.3867 89.2978 58.624 88.5725 59.52C87.8472 60.416 86.9618 61.0453 85.9165 61.408C84.8712 61.7707 83.5378 61.952 81.9165 61.952ZM97.7163 56V39.424H115.764V56H108.34V44.768H105.14V56H97.7163ZM1.76 71.424H9.184V77.184H10.432L14.08 71.424H20.864L16.256 78.912L21.76 88H13.376L10.272 82.528H9.184V88H1.76V71.424ZM37.4125 88.32C35.3645 88.32 33.5832 87.9787 32.0685 87.296C30.5538 86.6133 29.3805 85.632 28.5485 84.352C27.7378 83.0507 27.3325 81.4933 27.3325 79.68C27.3325 77.888 27.7485 76.352 28.5805 75.072C29.4125 73.792 30.5752 72.8107 32.0685 72.128C33.5618 71.4453 35.3112 71.104 37.3165 71.104C39.8978 71.104 41.7752 71.488 42.9485 72.256V77.44C41.7112 76.672 40.2818 76.288 38.6605 76.288C37.5085 76.288 36.6125 76.576 35.9725 77.152C35.3325 77.7067 35.0125 78.5493 35.0125 79.68C35.0125 80.832 35.3432 81.696 36.0045 82.272C36.6872 82.848 37.6045 83.136 38.7565 83.136C40.4845 83.136 41.8818 82.752 42.9485 81.984V87.168C42.5432 87.5093 41.8498 87.7867 40.8685 88C39.8872 88.2133 38.7352 88.32 37.4125 88.32ZM54.1758 88.32C52.3624 88.32 50.6984 88 49.1838 87.36C47.6904 86.6987 46.4851 85.728 45.5678 84.448C44.6718 83.168 44.2238 81.5787 44.2238 79.68C44.2238 77.8027 44.6718 76.2347 45.5678 74.976C46.4638 73.696 47.6584 72.736 49.1518 72.096C50.6664 71.4347 52.3304 71.104 54.1438 71.104C55.9784 71.104 57.6424 71.4347 59.1358 72.096C60.6504 72.736 61.8558 73.696 62.7518 74.976C63.6691 76.2347 64.1278 77.8027 64.1278 79.68C64.1278 81.5787 63.6798 83.168 62.7838 84.448C61.8878 85.728 60.6824 86.6987 59.1678 87.36C57.6744 88 56.0104 88.32 54.1758 88.32ZM54.1758 83.136C54.8584 83.136 55.4238 82.8587 55.8718 82.304C56.3411 81.728 56.5758 80.8533 56.5758 79.68C56.5758 78.528 56.3411 77.6747 55.8718 77.12C55.4238 76.5653 54.8584 76.288 54.1758 76.288C53.5144 76.288 52.9491 76.5653 52.4798 77.12C52.0104 77.6747 51.7758 78.528 51.7758 79.68C51.7758 80.8533 52.0104 81.728 52.4798 82.304C52.9491 82.8587 53.5144 83.136 54.1758 83.136ZM77.1478 71.904C78.8331 71.904 80.2411 72.2453 81.3718 72.928C82.5238 73.6107 83.3878 74.5387 83.9638 75.712C84.5611 76.864 84.8598 78.1547 84.8598 79.584C84.8598 81.4187 84.4224 82.9867 83.5478 84.288C82.6944 85.5893 81.5318 86.592 80.0598 87.296C78.6091 87.9787 76.9771 88.32 75.1638 88.32C73.3078 88.32 71.6224 87.9253 70.1078 87.136C68.6144 86.3253 67.4304 85.0987 66.5558 83.456C65.6811 81.792 65.2438 79.68 65.2438 77.12C65.2438 72.832 66.3531 69.6107 68.5718 67.456C69.5958 66.4747 70.7904 65.76 72.1558 65.312C73.5424 64.864 75.3131 64.608 77.4678 64.544C79.1531 64.5013 80.4544 64.4373 81.3718 64.352C82.3104 64.2667 83.0678 64.1387 83.6438 63.968V69.632C83.3451 69.76 82.9611 69.8667 82.4918 69.952C82.0438 70.016 81.4464 70.08 80.6998 70.144C79.9744 70.1867 79.0251 70.2293 77.8518 70.272C76.1024 70.336 74.7798 70.5387 73.8838 70.88C72.9878 71.2213 72.2944 71.776 71.8038 72.544C71.4411 73.184 71.1744 74.016 71.0038 75.04C71.5158 74.08 72.2944 73.3227 73.3398 72.768C74.3851 72.192 75.6544 71.904 77.1478 71.904ZM75.0358 83.136C75.7184 83.136 76.2518 82.8693 76.6358 82.336C77.0198 81.7813 77.2118 81.0027 77.2118 80C77.2118 78.9973 77.0198 78.2187 76.6358 77.664C76.2518 77.1093 75.7184 76.832 75.0358 76.832C74.3744 76.832 73.8518 77.1093 73.4678 77.664C73.1051 78.2187 72.9238 78.9973 72.9238 80C72.9238 81.0027 73.1051 81.7813 73.4678 82.336C73.8518 82.8693 74.3744 83.136 75.0358 83.136ZM94.2028 71.424V75.616H97.1468C99.5574 75.616 101.413 76.1707 102.715 77.28C104.037 78.3893 104.699 79.8507 104.699 81.664C104.699 82.944 104.379 84.064 103.739 85.024C103.099 85.9627 102.224 86.6987 101.115 87.232C100.005 87.744 98.7254 88 97.2748 88H86.7788V71.424H94.2028ZM112.987 71.424V88H105.595V71.424H112.987ZM95.8028 83.264C96.8694 83.264 97.4028 82.784 97.4028 81.824C97.4028 81.3333 97.2854 80.96 97.0508 80.704C96.8374 80.448 96.4214 80.32 95.8028 80.32H94.2028V83.264H95.8028ZM114.738 71.424H131.474V76.768H126.802V88H119.378V76.768H114.738V71.424ZM140.481 71.424V79.136L144.833 71.424H151.937V88H144.737V80.256L140.353 88H133.249V71.424H140.481ZM153.071 88L157.455 81.92C155.322 81.1307 154.255 79.616 154.255 77.376C154.255 75.4773 154.885 74.016 156.143 72.992C157.423 71.9467 159.386 71.424 162.031 71.424H172.495V88H165.071V83.392H163.823L160.623 88H153.071ZM163.535 76.16C163.002 76.16 162.565 76.288 162.223 76.544C161.903 76.8 161.743 77.2053 161.743 77.76C161.743 78.272 161.882 78.6773 162.159 78.976C162.437 79.2747 162.874 79.424 163.471 79.424H165.071V76.16H163.535ZM175.375 71.424H184.047L186.863 78.88L190.031 71.424H198.927L199.119 88H191.663V79.968L188.687 87.424H183.919L181.103 79.936V88H175.375V71.424ZM14.656 120.32C11.8827 120.32 9.46133 119.861 7.392 118.944C5.344 118.005 3.75467 116.661 2.624 114.912C1.51467 113.141 0.96 111.029 0.96 108.576C0.96 106.101 1.51467 103.989 2.624 102.24C3.75467 100.491 5.344 99.1467 7.392 98.208C9.46133 97.2693 11.8827 96.8 14.656 96.8C15.9573 96.8 17.1307 96.896 18.176 97.088C19.2213 97.2587 20.0427 97.5147 20.64 97.856V103.488C19.9573 103.211 19.1467 102.987 18.208 102.816C17.2907 102.645 16.4267 102.56 15.616 102.56C13.5467 102.56 11.9147 103.04 10.72 104C9.54667 104.96 8.96 106.485 8.96 108.576C8.96 110.645 9.54667 112.16 10.72 113.12C11.9147 114.059 13.5467 114.528 15.616 114.528C16.4907 114.528 17.3973 114.443 18.336 114.272C19.2747 114.101 20.0427 113.888 20.64 113.632V119.264C20 119.605 19.1573 119.861 18.112 120.032C17.0667 120.224 15.9147 120.32 14.656 120.32ZM30.2068 108.288C29.1188 108.288 28.0094 108.395 26.8788 108.608C25.7694 108.8 24.7028 109.077 23.6788 109.44V104.256C24.6388 103.893 25.8121 103.616 27.1988 103.424C28.5854 103.211 30.0148 103.104 31.4868 103.104C33.3428 103.104 34.9321 103.328 36.2548 103.776C37.5988 104.203 38.6228 104.917 39.3268 105.92C40.0521 106.901 40.4148 108.235 40.4148 109.92V117.344C40.4148 117.685 40.4254 118.144 40.4468 118.72C40.4894 119.275 40.5321 119.701 40.5748 120H33.5348C33.4708 119.701 33.4068 119.36 33.3428 118.976C33.3001 118.571 33.2468 118.165 33.1828 117.76C32.7774 118.4 32.1588 118.987 31.3268 119.52C30.4948 120.053 29.3641 120.32 27.9348 120.32C26.9961 120.32 26.1108 120.171 25.2788 119.872C24.4681 119.552 23.8068 119.051 23.2948 118.368C22.8041 117.685 22.5588 116.789 22.5588 115.68C22.5588 113.867 23.3268 112.448 24.8628 111.424C26.3988 110.4 28.8308 109.888 32.1588 109.888H32.9908C32.9054 109.397 32.7134 109.045 32.4148 108.832C32.1161 108.597 31.7641 108.448 31.3588 108.384C30.9748 108.32 30.5908 108.288 30.2068 108.288ZM33.0228 114.016V113.088H32.0628C31.2094 113.088 30.6228 113.237 30.3028 113.536C30.0041 113.835 29.8548 114.197 29.8548 114.624C29.8548 115.072 29.9934 115.424 30.2708 115.68C30.5481 115.915 30.9108 116.032 31.3588 116.032C31.9348 116.032 32.3508 115.851 32.6068 115.488C32.8841 115.104 33.0228 114.613 33.0228 114.016ZM42.7613 103.424H51.4333L54.2493 110.88L57.4173 103.424H66.3133L66.5053 120H59.0493V111.968L56.0733 119.424H51.3053L48.4893 111.936V120H42.7613V103.424ZM78.3633 120.32C76.5499 120.32 74.8859 120 73.3713 119.36C71.8779 118.699 70.6726 117.728 69.7553 116.448C68.8593 115.168 68.4113 113.579 68.4113 111.68C68.4113 109.803 68.8593 108.235 69.7553 106.976C70.6513 105.696 71.8459 104.736 73.3393 104.096C74.8539 103.435 76.5179 103.104 78.3313 103.104C80.1659 103.104 81.8299 103.435 83.3233 104.096C84.8379 104.736 86.0433 105.696 86.9393 106.976C87.8566 108.235 88.3153 109.803 88.3153 111.68C88.3153 113.579 87.8673 115.168 86.9713 116.448C86.0753 117.728 84.8699 118.699 83.3553 119.36C81.8619 120 80.1979 120.32 78.3633 120.32ZM78.3633 115.136C79.0459 115.136 79.6113 114.859 80.0593 114.304C80.5286 113.728 80.7633 112.853 80.7633 111.68C80.7633 110.528 80.5286 109.675 80.0593 109.12C79.6113 108.565 79.0459 108.288 78.3633 108.288C77.7019 108.288 77.1366 108.565 76.6673 109.12C76.1979 109.675 75.9633 110.528 75.9633 111.68C75.9633 112.853 76.1979 113.728 76.6673 114.304C77.1366 114.859 77.7019 115.136 78.3633 115.136ZM90.2313 103.424H97.6553V109.184H98.9033L102.551 103.424H109.335L104.727 110.912L110.231 120H101.847L98.7433 114.528H97.6553V120H90.2313V103.424ZM117.866 108.288C116.778 108.288 115.668 108.395 114.538 108.608C113.428 108.8 112.362 109.077 111.338 109.44V104.256C112.298 103.893 113.471 103.616 114.858 103.424C116.244 103.211 117.674 103.104 119.146 103.104C121.002 103.104 122.591 103.328 123.914 103.776C125.258 104.203 126.282 104.917 126.986 105.92C127.711 106.901 128.074 108.235 128.074 109.92V117.344C128.074 117.685 128.084 118.144 128.106 118.72C128.148 119.275 128.191 119.701 128.234 120H121.194C121.13 119.701 121.066 119.36 121.002 118.976C120.959 118.571 120.906 118.165 120.842 117.76C120.436 118.4 119.818 118.987 118.986 119.52C118.154 120.053 117.023 120.32 115.594 120.32C114.655 120.32 113.77 120.171 112.938 119.872C112.127 119.552 111.466 119.051 110.954 118.368C110.463 117.685 110.218 116.789 110.218 115.68C110.218 113.867 110.986 112.448 112.522 111.424C114.058 110.4 116.49 109.888 119.818 109.888H120.65C120.564 109.397 120.372 109.045 120.074 108.832C119.775 108.597 119.423 108.448 119.018 108.384C118.634 108.32 118.25 108.288 117.866 108.288ZM120.682 114.016V113.088H119.722C118.868 113.088 118.282 113.237 117.962 113.536C117.663 113.835 117.514 114.197 117.514 114.624C117.514 115.072 117.652 115.424 117.93 115.68C118.207 115.915 118.57 116.032 119.018 116.032C119.594 116.032 120.01 115.851 120.266 115.488C120.543 115.104 120.682 114.613 120.682 114.016ZM128.988 103.424H145.724V108.768H141.052V120H133.628V108.768H128.988V103.424ZM156.178 120.32C154.365 120.32 152.701 120 151.186 119.36C149.693 118.699 148.488 117.728 147.57 116.448C146.674 115.168 146.226 113.579 146.226 111.68C146.226 109.803 146.674 108.235 147.57 106.976C148.466 105.696 149.661 104.736 151.154 104.096C152.669 103.435 154.333 103.104 156.146 103.104C157.981 103.104 159.645 103.435 161.138 104.096C162.653 104.736 163.858 105.696 164.754 106.976C165.672 108.235 166.13 109.803 166.13 111.68C166.13 113.579 165.682 115.168 164.786 116.448C163.89 117.728 162.685 118.699 161.17 119.36C159.677 120 158.013 120.32 156.178 120.32ZM156.178 115.136C156.861 115.136 157.426 114.859 157.874 114.304C158.344 113.728 158.578 112.853 158.578 111.68C158.578 110.528 158.344 109.675 157.874 109.12C157.426 108.565 156.861 108.288 156.178 108.288C155.517 108.288 154.952 108.565 154.482 109.12C154.013 109.675 153.778 110.528 153.778 111.68C153.778 112.853 154.013 113.728 154.482 114.304C154.952 114.859 155.517 115.136 156.178 115.136ZM178.222 120H168.046V103.424H178.35C180.612 103.424 182.286 103.765 183.374 104.448C184.484 105.131 185.038 106.197 185.038 107.648C185.038 108.693 184.708 109.536 184.046 110.176C183.406 110.795 182.574 111.221 181.55 111.456C182.852 111.648 183.876 112.043 184.622 112.64C185.369 113.237 185.742 114.144 185.742 115.36C185.742 116.747 185.113 117.867 183.854 118.72C182.617 119.573 180.74 120 178.222 120ZM176.462 107.584H175.086V109.856H176.462C177.444 109.856 177.934 109.483 177.934 108.736C177.934 108.373 177.828 108.096 177.614 107.904C177.401 107.691 177.017 107.584 176.462 107.584ZM176.718 113.408H175.086V115.84H176.718C177.188 115.84 177.561 115.755 177.838 115.584C178.116 115.392 178.254 115.093 178.254 114.688C178.254 114.261 178.137 113.941 177.902 113.728C177.668 113.515 177.273 113.408 176.718 113.408Z" fill="#21201F"/>
</svg>
