<svg width="280" height="152" viewBox="0 0 280 152" fill="none" xmlns="http://www.w3.org/2000/svg">
<path d="M1.76 0.0879993H9.632V8.984H11.232L16.384 0.0879993H24.064L17.504 11.352L24.704 23H16.128L11.008 14.584H9.632V23H1.76V0.0879993ZM28.8365 28.952C27.9832 28.952 27.2365 28.8987 26.5965 28.792C25.9778 28.7067 25.2205 28.5253 24.3245 28.248V23.128C24.8152 23.3413 25.3912 23.512 26.0525 23.64C26.7138 23.768 27.3325 23.832 27.9085 23.832C28.8258 23.832 29.5618 23.6613 30.1165 23.32L23.7485 6.424H31.1725L34.1805 15.384L37.1565 6.424H43.6845L37.5085 22.808C36.8898 24.3867 36.2178 25.624 35.4925 26.52C34.7672 27.416 33.8818 28.0453 32.8365 28.408C31.7912 28.7707 30.4578 28.952 28.8365 28.952ZM44.6363 23V6.424H62.6843V23H55.2603V11.768H52.0603V23H44.6363ZM72.7908 6.424V14.136L77.1428 6.424H84.2468V23H77.0468V15.256L72.6628 23H65.5588V6.424H72.7908ZM86.0175 6.424H102.754V11.768H98.0815V23H90.6575V11.768H86.0175V6.424ZM111.793 6.424V10.616H114.833C117.243 10.616 119.099 11.1707 120.401 12.28C121.723 13.3893 122.385 14.8507 122.385 16.664C122.385 17.944 122.065 19.064 121.425 20.024C120.785 20.9627 119.91 21.6987 118.801 22.232C117.691 22.744 116.411 23 114.961 23H104.529V6.424H111.793ZM113.489 18.264C114.555 18.264 115.089 17.784 115.089 16.824C115.089 16.3333 114.971 15.96 114.737 15.704C114.523 15.448 114.107 15.32 113.489 15.32H111.793V18.264H113.489ZM8.128 43.288C7.04 43.288 5.93067 43.3947 4.8 43.608C3.69067 43.8 2.624 44.0773 1.6 44.44V39.256C2.56 38.8933 3.73333 38.616 5.12 38.424C6.50667 38.2107 7.936 38.104 9.408 38.104C11.264 38.104 12.8533 38.328 14.176 38.776C15.52 39.2027 16.544 39.9173 17.248 40.92C17.9733 41.9013 18.336 43.2347 18.336 44.92V52.344C18.336 52.6853 18.3467 53.144 18.368 53.72C18.4107 54.2747 18.4533 54.7013 18.496 55H11.456C11.392 54.7013 11.328 54.36 11.264 53.976C11.2213 53.5707 11.168 53.1653 11.104 52.76C10.6987 53.4 10.08 53.9867 9.248 54.52C8.416 55.0533 7.28533 55.32 5.856 55.32C4.91733 55.32 4.032 55.1707 3.2 54.872C2.38933 54.552 1.728 54.0507 1.216 53.368C0.725333 52.6853 0.48 51.7893 0.48 50.68C0.48 48.8667 1.248 47.448 2.784 46.424C4.32 45.4 6.752 44.888 10.08 44.888H10.912C10.8267 44.3973 10.6347 44.0453 10.336 43.832C10.0373 43.5973 9.68533 43.448 9.28 43.384C8.896 43.32 8.512 43.288 8.128 43.288ZM10.944 49.016V48.088H9.984C9.13067 48.088 8.544 48.2373 8.224 48.536C7.92533 48.8347 7.776 49.1973 7.776 49.624C7.776 50.072 7.91467 50.424 8.192 50.68C8.46933 50.9147 8.832 51.032 9.28 51.032C9.856 51.032 10.272 50.8507 10.528 50.488C10.8053 50.104 10.944 49.6133 10.944 49.016ZM31.7865 38.904C33.4718 38.904 34.8798 39.2453 36.0105 39.928C37.1625 40.6107 38.0265 41.5387 38.6025 42.712C39.1998 43.864 39.4985 45.1547 39.4985 46.584C39.4985 48.4187 39.0612 49.9867 38.1865 51.288C37.3332 52.5893 36.1705 53.592 34.6985 54.296C33.2478 54.9787 31.6158 55.32 29.8025 55.32C27.9465 55.32 26.2612 54.9253 24.7465 54.136C23.2532 53.3253 22.0692 52.0987 21.1945 50.456C20.3198 48.792 19.8825 46.68 19.8825 44.12C19.8825 39.832 20.9918 36.6107 23.2105 34.456C24.2345 33.4747 25.4292 32.76 26.7945 32.312C28.1812 31.864 29.9518 31.608 32.1065 31.544C33.7918 31.5013 35.0932 31.4373 36.0105 31.352C36.9492 31.2667 37.7065 31.1387 38.2825 30.968V36.632C37.9838 36.76 37.5998 36.8667 37.1305 36.952C36.6825 37.016 36.0852 37.08 35.3385 37.144C34.6132 37.1867 33.6638 37.2293 32.4905 37.272C30.7412 37.336 29.4185 37.5387 28.5225 37.88C27.6265 38.2213 26.9332 38.776 26.4425 39.544C26.0798 40.184 25.8132 41.016 25.6425 42.04C26.1545 41.08 26.9332 40.3227 27.9785 39.768C29.0238 39.192 30.2932 38.904 31.7865 38.904ZM29.6745 50.136C30.3572 50.136 30.8905 49.8693 31.2745 49.336C31.6585 48.7813 31.8505 48.0027 31.8505 47C31.8505 45.9973 31.6585 45.2187 31.2745 44.664C30.8905 44.1093 30.3572 43.832 29.6745 43.832C29.0132 43.832 28.4905 44.1093 28.1065 44.664C27.7438 45.2187 27.5625 45.9973 27.5625 47C27.5625 48.0027 27.7438 48.7813 28.1065 49.336C28.4905 49.8693 29.0132 50.136 29.6745 50.136ZM50.4095 55.32C48.5962 55.32 46.9322 55 45.4175 54.36C43.9242 53.6987 42.7188 52.728 41.8015 51.448C40.9055 50.168 40.4575 48.5787 40.4575 46.68C40.4575 44.8027 40.9055 43.2347 41.8015 41.976C42.6975 40.696 43.8922 39.736 45.3855 39.096C46.9002 38.4347 48.5642 38.104 50.3775 38.104C52.2122 38.104 53.8762 38.4347 55.3695 39.096C56.8842 39.736 58.0895 40.696 58.9855 41.976C59.9028 43.2347 60.3615 44.8027 60.3615 46.68C60.3615 48.5787 59.9135 50.168 59.0175 51.448C58.1215 52.728 56.9162 53.6987 55.4015 54.36C53.9082 55 52.2442 55.32 50.4095 55.32ZM50.4095 50.136C51.0922 50.136 51.6575 49.8587 52.1055 49.304C52.5748 48.728 52.8095 47.8533 52.8095 46.68C52.8095 45.528 52.5748 44.6747 52.1055 44.12C51.6575 43.5653 51.0922 43.288 50.4095 43.288C49.7482 43.288 49.1828 43.5653 48.7135 44.12C48.2442 44.6747 48.0095 45.528 48.0095 46.68C48.0095 47.8533 48.2442 48.728 48.7135 49.304C49.1828 49.8587 49.7482 50.136 50.4095 50.136ZM69.7015 38.424V44.024H73.0935V38.424H80.5175V55H73.0935V49.368H69.7015V55H62.2775V38.424H69.7015ZM93.1475 55.32C90.6515 55.32 88.6142 54.9467 87.0355 54.2C85.4568 53.4533 84.2942 52.4293 83.5475 51.128C82.8008 49.8267 82.4275 48.344 82.4275 46.68C82.4275 44.952 82.8008 43.448 83.5475 42.168C84.3155 40.8667 85.3928 39.864 86.7795 39.16C88.1875 38.456 89.8622 38.104 91.8035 38.104C94.0222 38.104 95.8462 38.52 97.2755 39.352C98.7048 40.1627 99.6968 41.336 100.252 42.872C100.828 44.3867 100.934 46.1893 100.572 48.28H89.8515C90.0862 49.0267 90.5235 49.5707 91.1635 49.912C91.8248 50.2533 92.8275 50.424 94.1715 50.424C94.9395 50.424 95.6968 50.3813 96.4435 50.296C97.2115 50.1893 98.2035 49.976 99.4195 49.656V54.488C98.6302 54.808 97.7128 55.0213 96.6675 55.128C95.6435 55.256 94.4702 55.32 93.1475 55.32ZM91.9315 42.008C91.2488 42.008 90.7368 42.2427 90.3955 42.712C90.0542 43.16 89.8302 43.8107 89.7235 44.664H93.8835C93.8408 42.8933 93.1902 42.008 91.9315 42.008ZM102.373 38.424H111.045L113.861 45.88L117.029 38.424H125.925L126.117 55H118.661V46.968L115.685 54.424H110.917L108.101 46.936V55H102.373V38.424ZM138.743 55.32C136.247 55.32 134.209 54.9467 132.631 54.2C131.052 53.4533 129.889 52.4293 129.143 51.128C128.396 49.8267 128.023 48.344 128.023 46.68C128.023 44.952 128.396 43.448 129.143 42.168C129.911 40.8667 130.988 39.864 132.375 39.16C133.783 38.456 135.457 38.104 137.399 38.104C139.617 38.104 141.441 38.52 142.871 39.352C144.3 40.1627 145.292 41.336 145.847 42.872C146.423 44.3867 146.529 46.1893 146.167 48.28H135.447C135.681 49.0267 136.119 49.5707 136.759 49.912C137.42 50.2533 138.423 50.424 139.767 50.424C140.535 50.424 141.292 50.3813 142.039 50.296C142.807 50.1893 143.799 49.976 145.015 49.656V54.488C144.225 54.808 143.308 55.0213 142.263 55.128C141.239 55.256 140.065 55.32 138.743 55.32ZM137.527 42.008C136.844 42.008 136.332 42.2427 135.991 42.712C135.649 43.16 135.425 43.8107 135.319 44.664H139.479C139.436 42.8933 138.785 42.008 137.527 42.008ZM155.392 38.424V44.024H158.784V38.424H166.208V55H158.784V49.368H155.392V55H147.968V38.424H155.392ZM167.958 38.424H184.694V43.768H180.022V55H172.598V43.768H167.958V38.424ZM8.992 70.424V78.136L13.344 70.424H20.448V87H13.248V79.256L8.864 87H1.76V70.424H8.992ZM38.781 87H28.605V70.424H38.909C41.1703 70.424 42.845 70.7653 43.933 71.448C45.0423 72.1307 45.597 73.1973 45.597 74.648C45.597 75.6933 45.2663 76.536 44.605 77.176C43.965 77.7947 43.133 78.2213 42.109 78.456C43.4103 78.648 44.4343 79.0427 45.181 79.64C45.9277 80.2373 46.301 81.144 46.301 82.36C46.301 83.7467 45.6717 84.8667 44.413 85.72C43.1757 86.5733 41.2983 87 38.781 87ZM37.021 74.584H35.645V76.856H37.021C38.0023 76.856 38.493 76.4827 38.493 75.736C38.493 75.3733 38.3863 75.096 38.173 74.904C37.9597 74.6907 37.5757 74.584 37.021 74.584ZM37.277 80.408H35.645V82.84H37.277C37.7463 82.84 38.1197 82.7547 38.397 82.584C38.6743 82.392 38.813 82.0933 38.813 81.688C38.813 81.2613 38.6957 80.9413 38.461 80.728C38.2263 80.5147 37.8317 80.408 37.277 80.408ZM57.335 87.32C55.287 87.32 53.5057 86.9787 51.991 86.296C50.4763 85.6133 49.303 84.632 48.471 83.352C47.6603 82.0507 47.255 80.4933 47.255 78.68C47.255 76.888 47.671 75.352 48.503 74.072C49.335 72.792 50.4977 71.8107 51.991 71.128C53.4843 70.4453 55.2337 70.104 57.239 70.104C59.8203 70.104 61.6977 70.488 62.871 71.256V76.44C61.6337 75.672 60.2043 75.288 58.583 75.288C57.431 75.288 56.535 75.576 55.895 76.152C55.255 76.7067 54.935 77.5493 54.935 78.68C54.935 79.832 55.2657 80.696 55.927 81.272C56.6097 81.848 57.527 82.136 58.679 82.136C60.407 82.136 61.8043 81.752 62.871 80.984V86.168C62.4657 86.5093 61.7723 86.7867 60.791 87C59.8097 87.2133 58.6577 87.32 57.335 87.32ZM63.9862 70.424H80.7222V75.768H76.0502V87H68.6262V75.768H63.9862V70.424ZM86.2453 92.952C85.3919 92.952 84.6453 92.8987 84.0053 92.792C83.3866 92.7067 82.6293 92.5253 81.7333 92.248V87.128C82.2239 87.3413 82.7999 87.512 83.4613 87.64C84.1226 87.768 84.7413 87.832 85.3173 87.832C86.2346 87.832 86.9706 87.6613 87.5253 87.32L81.1573 70.424H88.5813L91.5893 79.384L94.5653 70.424H101.093L94.9173 86.808C94.2986 88.3867 93.6266 89.624 92.9013 90.52C92.1759 91.416 91.2906 92.0453 90.2453 92.408C89.1999 92.7707 87.8666 92.952 86.2453 92.952ZM102.045 87V70.424H120.093V87H112.669V75.768H109.469V87H102.045ZM130.199 70.424V78.136L134.551 70.424H141.655V87H134.455V79.256L130.071 87H122.967V70.424H130.199ZM143.426 70.424H160.162V75.768H155.49V87H148.066V75.768H143.426V70.424ZM169.202 70.424V74.616H172.242C174.652 74.616 176.508 75.1707 177.81 76.28C179.132 77.3893 179.794 78.8507 179.794 80.664C179.794 81.944 179.474 83.064 178.834 84.024C178.194 84.9627 177.319 85.6987 176.21 86.232C175.1 86.744 173.82 87 172.37 87H161.938V70.424H169.202ZM170.898 82.264C171.964 82.264 172.498 81.784 172.498 80.824C172.498 80.3333 172.38 79.96 172.146 79.704C171.932 79.448 171.516 79.32 170.898 79.32H169.202V82.264H170.898ZM11.936 119H1.76V102.424H12.064C14.3253 102.424 16 102.765 17.088 103.448C18.1973 104.131 18.752 105.197 18.752 106.648C18.752 107.693 18.4213 108.536 17.76 109.176C17.12 109.795 16.288 110.221 15.264 110.456C16.5653 110.648 17.5893 111.043 18.336 111.64C19.0827 112.237 19.456 113.144 19.456 114.36C19.456 115.747 18.8267 116.867 17.568 117.72C16.3307 118.573 14.4533 119 11.936 119ZM10.176 106.584H8.8V108.856H10.176C11.1573 108.856 11.648 108.483 11.648 107.736C11.648 107.373 11.5413 107.096 11.328 106.904C11.1147 106.691 10.7307 106.584 10.176 106.584ZM10.432 112.408H8.8V114.84H10.432C10.9013 114.84 11.2747 114.755 11.552 114.584C11.8293 114.392 11.968 114.093 11.968 113.688C11.968 113.261 11.8507 112.941 11.616 112.728C11.3813 112.515 10.9867 112.408 10.432 112.408ZM26.6362 102.424H34.0602V108.184H35.3082L38.9563 102.424H45.7402L41.1322 109.912L46.6362 119H38.2522L35.1482 113.528H34.0602V119H26.6362V102.424ZM46.7825 113.08C47.4865 113.229 48.0198 113.144 48.3825 112.824C48.7452 112.483 49.0012 111.832 49.1505 110.872C49.2998 109.933 49.3958 108.824 49.4385 107.544C49.5025 106.264 49.5345 104.557 49.5345 102.424H65.2785V119H57.8545V107.768H55.3585C55.2945 109.389 55.1985 110.723 55.0705 111.768C54.9638 112.813 54.8038 113.709 54.5905 114.456C54.0572 116.419 53.1185 117.784 51.7745 118.552C50.4518 119.32 48.7878 119.469 46.7825 119V113.08ZM71.604 124.952C70.7507 124.952 70.004 124.899 69.364 124.792C68.7453 124.707 67.988 124.525 67.092 124.248V119.128C67.5827 119.341 68.1587 119.512 68.82 119.64C69.4813 119.768 70.1 119.832 70.676 119.832C71.5933 119.832 72.3293 119.661 72.884 119.32L66.516 102.424H73.94L76.948 111.384L79.924 102.424H86.452L80.276 118.808C79.6573 120.387 78.9853 121.624 78.26 122.52C77.5347 123.416 76.6493 124.045 75.604 124.408C74.5587 124.771 73.2253 124.952 71.604 124.952ZM98.8203 102.904C100.506 102.904 101.914 103.245 103.044 103.928C104.196 104.611 105.06 105.539 105.636 106.712C106.234 107.864 106.532 109.155 106.532 110.584C106.532 112.419 106.095 113.987 105.22 115.288C104.367 116.589 103.204 117.592 101.732 118.296C100.282 118.979 98.6496 119.32 96.8363 119.32C94.9803 119.32 93.2949 118.925 91.7803 118.136C90.2869 117.325 89.1029 116.099 88.2283 114.456C87.3536 112.792 86.9163 110.68 86.9163 108.12C86.9163 103.832 88.0256 100.611 90.2443 98.456C91.2683 97.4747 92.4629 96.76 93.8283 96.312C95.2149 95.864 96.9856 95.608 99.1403 95.544C100.826 95.5013 102.127 95.4373 103.044 95.352C103.983 95.2667 104.74 95.1387 105.316 94.968V100.632C105.018 100.76 104.634 100.867 104.164 100.952C103.716 101.016 103.119 101.08 102.372 101.144C101.647 101.187 100.698 101.229 99.5243 101.272C97.7749 101.336 96.4523 101.539 95.5563 101.88C94.6603 102.221 93.9669 102.776 93.4763 103.544C93.1136 104.184 92.8469 105.016 92.6763 106.04C93.1883 105.08 93.9669 104.323 95.0123 103.768C96.0576 103.192 97.3269 102.904 98.8203 102.904ZM96.7083 114.136C97.3909 114.136 97.9243 113.869 98.3083 113.336C98.6923 112.781 98.8843 112.003 98.8843 111C98.8843 109.997 98.6923 109.219 98.3083 108.664C97.9243 108.109 97.3909 107.832 96.7083 107.832C96.0469 107.832 95.5243 108.109 95.1403 108.664C94.7776 109.219 94.5963 109.997 94.5963 111C94.5963 112.003 94.7776 112.781 95.1403 113.336C95.5243 113.869 96.0469 114.136 96.7083 114.136ZM122.837 119.32C120.789 119.32 119.008 118.979 117.493 118.296C115.979 117.613 114.805 116.632 113.973 115.352C113.163 114.051 112.757 112.493 112.757 110.68C112.757 108.888 113.173 107.352 114.005 106.072C114.837 104.792 116 103.811 117.493 103.128C118.987 102.445 120.736 102.104 122.741 102.104C125.323 102.104 127.2 102.488 128.373 103.256V108.44C127.136 107.672 125.707 107.288 124.085 107.288C122.933 107.288 122.037 107.576 121.397 108.152C120.757 108.707 120.437 109.549 120.437 110.68C120.437 111.832 120.768 112.696 121.429 113.272C122.112 113.848 123.029 114.136 124.181 114.136C125.909 114.136 127.307 113.752 128.373 112.984V118.168C127.968 118.509 127.275 118.787 126.293 119C125.312 119.213 124.16 119.32 122.837 119.32ZM130.609 102.424H139.281L142.097 109.88L145.265 102.424H154.161L154.353 119H146.897V110.968L143.921 118.424H139.153L136.337 110.936V119H130.609V102.424ZM166.211 119.32C164.397 119.32 162.733 119 161.219 118.36C159.725 117.699 158.52 116.728 157.603 115.448C156.707 114.168 156.259 112.579 156.259 110.68C156.259 108.803 156.707 107.235 157.603 105.976C158.499 104.696 159.693 103.736 161.187 103.096C162.701 102.435 164.365 102.104 166.179 102.104C168.013 102.104 169.677 102.435 171.171 103.096C172.685 103.736 173.891 104.696 174.787 105.976C175.704 107.235 176.163 108.803 176.163 110.68C176.163 112.579 175.715 114.168 174.819 115.448C173.923 116.728 172.717 117.699 171.203 118.36C169.709 119 168.045 119.32 166.211 119.32ZM166.211 114.136C166.893 114.136 167.459 113.859 167.907 113.304C168.376 112.728 168.611 111.853 168.611 110.68C168.611 109.528 168.376 108.675 167.907 108.12C167.459 107.565 166.893 107.288 166.211 107.288C165.549 107.288 164.984 107.565 164.515 108.12C164.045 108.675 163.811 109.528 163.811 110.68C163.811 111.853 164.045 112.728 164.515 113.304C164.984 113.859 165.549 114.136 166.211 114.136ZM178.079 119V102.424H191.071V107.768H185.375V119H178.079ZM196.905 124.952C196.052 124.952 195.305 124.899 194.665 124.792C194.047 124.707 193.289 124.525 192.393 124.248V119.128C192.884 119.341 193.46 119.512 194.121 119.64C194.783 119.768 195.401 119.832 195.977 119.832C196.895 119.832 197.631 119.661 198.185 119.32L191.817 102.424H199.241L202.249 111.384L205.225 102.424H211.753L205.577 118.808C204.959 120.387 204.287 121.624 203.561 122.52C202.836 123.416 201.951 124.045 200.905 124.408C199.86 124.771 198.527 124.952 196.905 124.952ZM211.898 102.424H228.634V107.768H223.962V119H216.538V107.768H211.898V102.424ZM234.555 102.424H251.291V107.768H246.619V119H239.195V107.768H234.555V102.424ZM262.514 119.32C260.018 119.32 257.98 118.947 256.402 118.2C254.823 117.453 253.66 116.429 252.914 115.128C252.167 113.827 251.794 112.344 251.794 110.68C251.794 108.952 252.167 107.448 252.914 106.168C253.682 104.867 254.759 103.864 256.146 103.16C257.554 102.456 259.228 102.104 261.17 102.104C263.388 102.104 265.212 102.52 266.642 103.352C268.071 104.163 269.063 105.336 269.618 106.872C270.194 108.387 270.3 110.189 269.938 112.28H259.218C259.452 113.027 259.89 113.571 260.53 113.912C261.191 114.253 262.194 114.424 263.538 114.424C264.306 114.424 265.063 114.381 265.81 114.296C266.578 114.189 267.57 113.976 268.786 113.656V118.488C267.996 118.808 267.079 119.021 266.034 119.128C265.01 119.256 263.836 119.32 262.514 119.32ZM261.298 106.008C260.615 106.008 260.103 106.243 259.762 106.712C259.42 107.16 259.196 107.811 259.09 108.664H263.25C263.207 106.893 262.556 106.008 261.298 106.008ZM275.234 123.384H270.626C271.245 122.68 271.789 121.976 272.258 121.272C272.749 120.568 273.133 119.715 273.41 118.712C272.45 118.371 271.8 117.869 271.458 117.208C271.117 116.525 270.946 115.864 270.946 115.224C270.946 114.136 271.309 113.208 272.034 112.44C272.76 111.672 273.709 111.288 274.882 111.288C276.077 111.288 277.058 111.672 277.826 112.44C278.616 113.208 279.01 114.285 279.01 115.672C279.01 116.739 278.808 117.784 278.402 118.808C278.018 119.811 277.538 120.707 276.962 121.496C276.386 122.307 275.81 122.936 275.234 123.384ZM1.76 134.424H9.184V140.184H10.432L14.08 134.424H20.864L16.256 141.912L21.76 151H13.376L10.272 145.528H9.184V151H1.76V134.424ZM21.9063 134.424H38.6423V139.768H33.9703V151H26.5463V139.768H21.9063V134.424ZM49.097 151.32C47.2837 151.32 45.6197 151 44.105 150.36C42.6117 149.699 41.4063 148.728 40.489 147.448C39.593 146.168 39.145 144.579 39.145 142.68C39.145 140.803 39.593 139.235 40.489 137.976C41.385 136.696 42.5797 135.736 44.073 135.096C45.5877 134.435 47.2517 134.104 49.065 134.104C50.8997 134.104 52.5637 134.435 54.057 135.096C55.5717 135.736 56.777 136.696 57.673 137.976C58.5903 139.235 59.049 140.803 59.049 142.68C59.049 144.579 58.601 146.168 57.705 147.448C56.809 148.728 55.6037 149.699 54.089 150.36C52.5957 151 50.9317 151.32 49.097 151.32ZM49.097 146.136C49.7797 146.136 50.345 145.859 50.793 145.304C51.2623 144.728 51.497 143.853 51.497 142.68C51.497 141.528 51.2623 140.675 50.793 140.12C50.345 139.565 49.7797 139.288 49.097 139.288C48.4357 139.288 47.8703 139.565 47.401 140.12C46.9317 140.675 46.697 141.528 46.697 142.68C46.697 143.853 46.9317 144.728 47.401 145.304C47.8703 145.859 48.4357 146.136 49.097 146.136ZM76.4073 151H66.2313V134.424H76.5353C78.7966 134.424 80.4713 134.765 81.5593 135.448C82.6686 136.131 83.2233 137.197 83.2233 138.648C83.2233 139.693 82.8926 140.536 82.2313 141.176C81.5913 141.795 80.7593 142.221 79.7353 142.456C81.0366 142.648 82.0606 143.043 82.8073 143.64C83.5539 144.237 83.9273 145.144 83.9273 146.36C83.9273 147.747 83.2979 148.867 82.0393 149.72C80.8019 150.573 78.9246 151 76.4073 151ZM74.6473 138.584H73.2713V140.856H74.6473C75.6286 140.856 76.1193 140.483 76.1193 139.736C76.1193 139.373 76.0126 139.096 75.7993 138.904C75.5859 138.691 75.2019 138.584 74.6473 138.584ZM74.9033 144.408H73.2713V146.84H74.9033C75.3726 146.84 75.7459 146.755 76.0233 146.584C76.3006 146.392 76.4393 146.093 76.4393 145.688C76.4393 145.261 76.3219 144.941 76.0873 144.728C75.8526 144.515 75.4579 144.408 74.9033 144.408ZM91.1075 128.088H111.908V151H104.388V133.688H98.6275V151H91.1075V128.088ZM113.66 145.08C114.364 145.229 114.897 145.144 115.26 144.824C115.623 144.483 115.879 143.832 116.028 142.872C116.177 141.933 116.273 140.824 116.316 139.544C116.38 138.264 116.412 136.557 116.412 134.424H132.156V151H124.732V139.768H122.236C122.172 141.389 122.076 142.723 121.948 143.768C121.841 144.813 121.681 145.709 121.468 146.456C120.935 148.419 119.996 149.784 118.652 150.552C117.329 151.32 115.665 151.469 113.66 151V145.08ZM142.47 134.424V140.12H143.59C143.953 138.797 144.582 137.688 145.478 136.792C146.374 135.896 147.452 135.224 148.71 134.776C149.99 134.328 151.366 134.104 152.838 134.104C154.609 134.104 156.22 134.435 157.67 135.096C159.142 135.736 160.316 136.696 161.19 137.976C162.065 139.235 162.502 140.803 162.502 142.68C162.502 144.579 162.065 146.168 161.19 147.448C160.337 148.728 159.174 149.699 157.702 150.36C156.252 151 154.641 151.32 152.87 151.32C151.398 151.32 150.022 151.096 148.742 150.648C147.484 150.2 146.396 149.528 145.478 148.632C144.582 147.715 143.953 146.595 143.59 145.272H142.47V151H135.046V134.424H142.47ZM152.87 146.136C153.446 146.136 153.937 145.859 154.342 145.304C154.748 144.728 154.95 143.853 154.95 142.68C154.95 141.528 154.748 140.675 154.342 140.12C153.937 139.565 153.446 139.288 152.87 139.288C152.294 139.288 151.804 139.565 151.398 140.12C150.993 140.675 150.79 141.528 150.79 142.68C150.79 143.853 150.993 144.728 151.398 145.304C151.804 145.859 152.294 146.136 152.87 146.136ZM173.558 151.32C171.51 151.32 169.728 150.979 168.214 150.296C166.699 149.613 165.526 148.632 164.694 147.352C163.883 146.051 163.478 144.493 163.478 142.68C163.478 140.888 163.894 139.352 164.726 138.072C165.558 136.792 166.72 135.811 168.214 135.128C169.707 134.445 171.456 134.104 173.462 134.104C176.043 134.104 177.92 134.488 179.094 135.256V140.44C177.856 139.672 176.427 139.288 174.806 139.288C173.654 139.288 172.758 139.576 172.118 140.152C171.478 140.707 171.158 141.549 171.158 142.68C171.158 143.832 171.488 144.696 172.15 145.272C172.832 145.848 173.75 146.136 174.902 146.136C176.63 146.136 178.027 145.752 179.094 144.984V150.168C178.688 150.509 177.995 150.787 177.014 151C176.032 151.213 174.88 151.32 173.558 151.32ZM191.089 151.32C188.593 151.32 186.555 150.947 184.977 150.2C183.398 149.453 182.235 148.429 181.489 147.128C180.742 145.827 180.369 144.344 180.369 142.68C180.369 140.952 180.742 139.448 181.489 138.168C182.257 136.867 183.334 135.864 184.721 135.16C186.129 134.456 187.803 134.104 189.745 134.104C191.963 134.104 193.787 134.52 195.217 135.352C196.646 136.163 197.638 137.336 198.193 138.872C198.769 140.387 198.875 142.189 198.513 144.28H187.793C188.027 145.027 188.465 145.571 189.105 145.912C189.766 146.253 190.769 146.424 192.113 146.424C192.881 146.424 193.638 146.381 194.385 146.296C195.153 146.189 196.145 145.976 197.361 145.656V150.488C196.571 150.808 195.654 151.021 194.609 151.128C193.585 151.256 192.411 151.32 191.089 151.32ZM189.873 138.008C189.19 138.008 188.678 138.243 188.337 138.712C187.995 139.16 187.771 139.811 187.665 140.664H191.825C191.782 138.893 191.131 138.008 189.873 138.008Z" fill="#21201F"/>
</svg>
