<svg width="267" height="62" viewBox="0 0 267 62" fill="none" xmlns="http://www.w3.org/2000/svg">
<path d="M1.76 1.088H10.272C13.92 1.088 16.6933 1.52533 18.592 2.4C20.4907 3.25333 21.44 4.736 21.44 6.848C21.44 8.42667 20.9493 9.632 19.968 10.464C18.9867 11.2747 17.6853 11.8187 16.064 12.096C18.0693 12.352 19.6053 12.9067 20.672 13.76C21.7387 14.6133 22.272 15.84 22.272 17.44C22.272 19.0827 21.7493 20.384 20.704 21.344C19.6587 22.304 18.2187 22.9867 16.384 23.392C14.5707 23.7973 12.512 24 10.208 24H1.76V1.088ZM11.328 9.696C12.0107 9.696 12.5653 9.58933 12.992 9.376C13.44 9.14133 13.664 8.68267 13.664 8C13.664 7.424 13.504 7.01867 13.184 6.784C12.864 6.528 12.4267 6.4 11.872 6.4H9.632V9.696H11.328ZM11.808 18.72C12.5973 18.72 13.216 18.56 13.664 18.24C14.1333 17.92 14.368 17.3973 14.368 16.672C14.368 15.9467 14.1333 15.4347 13.664 15.136C13.1947 14.8373 12.48 14.688 11.52 14.688H9.632V18.72H11.808ZM33.3308 24.32C31.5174 24.32 29.8534 24 28.3388 23.36C26.8454 22.6987 25.6401 21.728 24.7228 20.448C23.8268 19.168 23.3788 17.5787 23.3788 15.68C23.3788 13.8027 23.8268 12.2347 24.7228 10.976C25.6188 9.696 26.8134 8.736 28.3068 8.096C29.8214 7.43467 31.4854 7.104 33.2988 7.104C35.1334 7.104 36.7974 7.43467 38.2908 8.096C39.8054 8.736 41.0108 9.696 41.9068 10.976C42.8241 12.2347 43.2828 13.8027 43.2828 15.68C43.2828 17.5787 42.8348 19.168 41.9388 20.448C41.0428 21.728 39.8374 22.6987 38.3228 23.36C36.8294 24 35.1654 24.32 33.3308 24.32ZM33.3308 19.136C34.0134 19.136 34.5788 18.8587 35.0268 18.304C35.4961 17.728 35.7308 16.8533 35.7308 15.68C35.7308 14.528 35.4961 13.6747 35.0268 13.12C34.5788 12.5653 34.0134 12.288 33.3308 12.288C32.6694 12.288 32.1041 12.5653 31.6348 13.12C31.1654 13.6747 30.9308 14.528 30.9308 15.68C30.9308 16.8533 31.1654 17.728 31.6348 18.304C32.1041 18.8587 32.6694 19.136 33.3308 19.136ZM43.7663 7.424H60.5023V12.768H55.8303V24H48.4063V12.768H43.7663V7.424ZM76.0878 13.92C76.9411 13.92 77.5278 13.7707 77.8478 13.472V7.424H85.2718V24H77.8478V17.6C77.3998 18.0693 76.7491 18.4533 75.8958 18.752C75.0424 19.0507 74.0718 19.2 72.9838 19.2C71.0638 19.2 69.5704 18.6453 68.5038 17.536C67.4371 16.4267 66.9038 14.7733 66.9038 12.576V7.424H74.3278V11.968C74.3278 12.5867 74.4558 13.0667 74.7118 13.408C74.9891 13.7493 75.4478 13.92 76.0878 13.92ZM87.0338 7.424H103.77V12.768H99.0978V24H91.6738V12.768H87.0338V7.424ZM114.225 24.32C112.411 24.32 110.747 24 109.233 23.36C107.739 22.6987 106.534 21.728 105.617 20.448C104.721 19.168 104.273 17.5787 104.273 15.68C104.273 13.8027 104.721 12.2347 105.617 10.976C106.513 9.696 107.707 8.736 109.201 8.096C110.715 7.43467 112.379 7.104 114.193 7.104C116.027 7.104 117.691 7.43467 119.185 8.096C120.699 8.736 121.905 9.696 122.801 10.976C123.718 12.2347 124.177 13.8027 124.177 15.68C124.177 17.5787 123.729 19.168 122.833 20.448C121.937 21.728 120.731 22.6987 119.217 23.36C117.723 24 116.059 24.32 114.225 24.32ZM114.225 19.136C114.907 19.136 115.473 18.8587 115.921 18.304C116.39 17.728 116.625 16.8533 116.625 15.68C116.625 14.528 116.39 13.6747 115.921 13.12C115.473 12.5653 114.907 12.288 114.225 12.288C113.563 12.288 112.998 12.5653 112.529 13.12C112.059 13.6747 111.825 14.528 111.825 15.68C111.825 16.8533 112.059 17.728 112.529 18.304C112.998 18.8587 113.563 19.136 114.225 19.136ZM136.095 28.736H129.759V18.656H131.423C132.105 17.5893 132.585 16.1493 132.863 14.336C133.161 12.5227 133.311 10.2187 133.311 7.424H149.087V18.656H151.615V28.736H145.247L145.055 24H136.319L136.095 28.736ZM141.823 12.768H138.847C138.655 15.1787 138.292 17.1413 137.759 18.656H141.823V12.768ZM159.306 12.288C158.218 12.288 157.108 12.3947 155.978 12.608C154.868 12.8 153.802 13.0773 152.778 13.44V8.256C153.738 7.89333 154.911 7.616 156.298 7.424C157.684 7.21067 159.114 7.104 160.586 7.104C162.442 7.104 164.031 7.328 165.354 7.776C166.698 8.20267 167.722 8.91733 168.426 9.92C169.151 10.9013 169.514 12.2347 169.514 13.92V21.344C169.514 21.6853 169.524 22.144 169.546 22.72C169.588 23.2747 169.631 23.7013 169.674 24H162.634C162.57 23.7013 162.506 23.36 162.442 22.976C162.399 22.5707 162.346 22.1653 162.282 21.76C161.876 22.4 161.258 22.9867 160.426 23.52C159.594 24.0533 158.463 24.32 157.034 24.32C156.095 24.32 155.21 24.1707 154.378 23.872C153.567 23.552 152.906 23.0507 152.394 22.368C151.903 21.6853 151.658 20.7893 151.658 19.68C151.658 17.8667 152.426 16.448 153.962 15.424C155.498 14.4 157.93 13.888 161.258 13.888H162.09C162.004 13.3973 161.812 13.0453 161.514 12.832C161.215 12.5973 160.863 12.448 160.458 12.384C160.074 12.32 159.69 12.288 159.306 12.288ZM162.122 18.016V17.088H161.162C160.308 17.088 159.722 17.2373 159.402 17.536C159.103 17.8347 158.954 18.1973 158.954 18.624C158.954 19.072 159.092 19.424 159.37 19.68C159.647 19.9147 160.01 20.032 160.458 20.032C161.034 20.032 161.45 19.8507 161.706 19.488C161.983 19.104 162.122 18.6133 162.122 18.016ZM184.5 6.56C183.945 6.56 183.401 6.41067 182.868 6.112C182.356 5.792 181.94 5.38667 181.62 4.896C181.3 4.384 181.14 3.84 181.14 3.264C181.14 2.624 181.3 2.05867 181.62 1.568C181.94 1.07733 182.356 0.693332 182.868 0.415998C183.401 0.138665 183.945 -1.90735e-06 184.5 -1.90735e-06C185.417 -1.90735e-06 186.217 0.309332 186.9 0.927999C187.583 1.54667 187.924 2.32533 187.924 3.264C187.924 3.84 187.764 4.384 187.444 4.896C187.124 5.38667 186.708 5.792 186.196 6.112C185.684 6.41067 185.119 6.56 184.5 6.56ZM176.66 6.56C176.084 6.56 175.54 6.41067 175.028 6.112C174.516 5.792 174.1 5.38667 173.78 4.896C173.46 4.384 173.3 3.84 173.3 3.264C173.3 2.624 173.46 2.05867 173.78 1.568C174.1 1.07733 174.516 0.693332 175.028 0.415998C175.54 0.138665 176.084 -1.90735e-06 176.66 -1.90735e-06C177.556 -1.90735e-06 178.345 0.309332 179.028 0.927999C179.732 1.54667 180.084 2.32533 180.084 3.264C180.084 3.84 179.924 4.384 179.604 4.896C179.284 5.38667 178.857 5.792 178.324 6.112C177.812 6.41067 177.257 6.56 176.66 6.56ZM181.62 24.32C179.124 24.32 177.087 23.9467 175.508 23.2C173.929 22.4533 172.767 21.4293 172.02 20.128C171.273 18.8267 170.9 17.344 170.9 15.68C170.9 13.952 171.273 12.448 172.02 11.168C172.788 9.86667 173.865 8.864 175.252 8.16C176.66 7.456 178.335 7.104 180.276 7.104C182.495 7.104 184.319 7.52 185.748 8.352C187.177 9.16267 188.169 10.336 188.724 11.872C189.3 13.3867 189.407 15.1893 189.044 17.28H178.324C178.559 18.0267 178.996 18.5707 179.636 18.912C180.297 19.2533 181.3 19.424 182.644 19.424C183.412 19.424 184.169 19.3813 184.916 19.296C185.684 19.1893 186.676 18.976 187.892 18.656V23.488C187.103 23.808 186.185 24.0213 185.14 24.128C184.116 24.256 182.943 24.32 181.62 24.32ZM180.404 11.008C179.721 11.008 179.209 11.2427 178.868 11.712C178.527 12.16 178.303 12.8107 178.196 13.664H182.356C182.313 11.8933 181.663 11.008 180.404 11.008ZM189.725 7.424H206.461V12.768H201.789V24H194.365V12.768H189.725V7.424ZM5.664 61.952C4.81067 61.952 4.064 61.8987 3.424 61.792C2.80533 61.7067 2.048 61.5253 1.152 61.248V56.128C1.64267 56.3413 2.21867 56.512 2.88 56.64C3.54133 56.768 4.16 56.832 4.736 56.832C5.65333 56.832 6.38933 56.6613 6.944 56.32L0.576 39.424H8L11.008 48.384L13.984 39.424H20.512L14.336 55.808C13.7173 57.3867 13.0453 58.624 12.32 59.52C11.5947 60.416 10.7093 61.0453 9.664 61.408C8.61867 61.7707 7.28533 61.952 5.664 61.952ZM30.164 45.92C31.0173 45.92 31.604 45.7707 31.924 45.472V39.424H39.348V56H31.924V49.6C31.476 50.0693 30.8253 50.4533 29.972 50.752C29.1187 51.0507 28.148 51.2 27.06 51.2C25.14 51.2 23.6467 50.6453 22.58 49.536C21.5133 48.4267 20.98 46.7733 20.98 44.576V39.424H28.404V43.968C28.404 44.5867 28.532 45.0667 28.788 45.408C29.0653 45.7493 29.524 45.92 30.164 45.92ZM48.7543 44.288C47.6663 44.288 46.5569 44.3947 45.4263 44.608C44.3169 44.8 43.2503 45.0773 42.2263 45.44V40.256C43.1863 39.8933 44.3596 39.616 45.7463 39.424C47.1329 39.2107 48.5623 39.104 50.0343 39.104C51.8903 39.104 53.4796 39.328 54.8023 39.776C56.1463 40.2027 57.1703 40.9173 57.8743 41.92C58.5996 42.9013 58.9623 44.2347 58.9623 45.92V53.344C58.9623 53.6853 58.9729 54.144 58.9943 54.72C59.0369 55.2747 59.0796 55.7013 59.1223 56H52.0823C52.0183 55.7013 51.9543 55.36 51.8903 54.976C51.8476 54.5707 51.7943 54.1653 51.7303 53.76C51.3249 54.4 50.7063 54.9867 49.8743 55.52C49.0423 56.0533 47.9116 56.32 46.4823 56.32C45.5436 56.32 44.6583 56.1707 43.8263 55.872C43.0156 55.552 42.3543 55.0507 41.8423 54.368C41.3516 53.6853 41.1063 52.7893 41.1063 51.68C41.1063 49.8667 41.8743 48.448 43.4103 47.424C44.9463 46.4 47.3783 45.888 50.7063 45.888H51.5383C51.4529 45.3973 51.2609 45.0453 50.9623 44.832C50.6636 44.5973 50.3116 44.448 49.9063 44.384C49.5223 44.32 49.1383 44.288 48.7543 44.288ZM51.5703 50.016V49.088H50.6103C49.7569 49.088 49.1703 49.2373 48.8503 49.536C48.5516 49.8347 48.4023 50.1973 48.4023 50.624C48.4023 51.072 48.5409 51.424 48.8183 51.68C49.0956 51.9147 49.4583 52.032 49.9063 52.032C50.4823 52.032 50.8983 51.8507 51.1543 51.488C51.4316 51.104 51.5703 50.6133 51.5703 50.016ZM70.4288 56.32C68.3808 56.32 66.5994 55.9787 65.0848 55.296C63.5701 54.6133 62.3968 53.632 61.5648 52.352C60.7541 51.0507 60.3488 49.4933 60.3488 47.68C60.3488 45.888 60.7648 44.352 61.5968 43.072C62.4288 41.792 63.5914 40.8107 65.0848 40.128C66.5781 39.4453 68.3274 39.104 70.3328 39.104C72.9141 39.104 74.7914 39.488 75.9648 40.256V45.44C74.7274 44.672 73.2981 44.288 71.6768 44.288C70.5248 44.288 69.6288 44.576 68.9888 45.152C68.3488 45.7067 68.0288 46.5493 68.0288 47.68C68.0288 48.832 68.3594 49.696 69.0208 50.272C69.7034 50.848 70.6208 51.136 71.7728 51.136C73.5008 51.136 74.8981 50.752 75.9648 49.984V55.168C75.5594 55.5093 74.8661 55.7867 73.8848 56C72.9034 56.2133 71.7514 56.32 70.4288 56.32ZM77.08 39.424H93.816V44.768H89.144V56H81.72V44.768H77.08V39.424ZM102.823 39.424V47.136L107.175 39.424H114.279V56H107.079V48.256L102.695 56H95.5913V39.424H102.823ZM126.93 56.32C124.434 56.32 122.397 55.9467 120.818 55.2C119.239 54.4533 118.077 53.4293 117.33 52.128C116.583 50.8267 116.21 49.344 116.21 47.68C116.21 45.952 116.583 44.448 117.33 43.168C118.098 41.8667 119.175 40.864 120.562 40.16C121.97 39.456 123.645 39.104 125.586 39.104C127.805 39.104 129.629 39.52 131.058 40.352C132.487 41.1627 133.479 42.336 134.034 43.872C134.61 45.3867 134.717 47.1893 134.354 49.28H123.634C123.869 50.0267 124.306 50.5707 124.946 50.912C125.607 51.2533 126.61 51.424 127.954 51.424C128.722 51.424 129.479 51.3813 130.226 51.296C130.994 51.1893 131.986 50.976 133.202 50.656V55.488C132.413 55.808 131.495 56.0213 130.45 56.128C129.426 56.256 128.253 56.32 126.93 56.32ZM125.714 43.008C125.031 43.008 124.519 43.2427 124.178 43.712C123.837 44.16 123.613 44.8107 123.506 45.664H127.666C127.623 43.8933 126.973 43.008 125.714 43.008ZM151.91 56H141.734V39.424H152.038C154.299 39.424 155.974 39.7653 157.062 40.448C158.171 41.1307 158.726 42.1973 158.726 43.648C158.726 44.6933 158.395 45.536 157.734 46.176C157.094 46.7947 156.262 47.2213 155.238 47.456C156.539 47.648 157.563 48.0427 158.31 48.64C159.056 49.2373 159.43 50.144 159.43 51.36C159.43 52.7467 158.8 53.8667 157.542 54.72C156.304 55.5733 154.427 56 151.91 56ZM150.15 43.584H148.774V45.856H150.15C151.131 45.856 151.622 45.4827 151.622 44.736C151.622 44.3733 151.515 44.096 151.302 43.904C151.088 43.6907 150.704 43.584 150.15 43.584ZM150.406 49.408H148.774V51.84H150.406C150.875 51.84 151.248 51.7547 151.526 51.584C151.803 51.392 151.942 51.0933 151.942 50.688C151.942 50.2613 151.824 49.9413 151.59 49.728C151.355 49.5147 150.96 49.408 150.406 49.408ZM166.61 39.424H174.034V45.184H175.282L178.93 39.424H185.714L181.106 46.912L186.61 56H178.226L175.122 50.528H174.034V56H166.61V39.424ZM186.756 50.08C187.46 50.2293 187.994 50.144 188.356 49.824C188.719 49.4827 188.975 48.832 189.124 47.872C189.274 46.9333 189.37 45.824 189.412 44.544C189.476 43.264 189.508 41.5573 189.508 39.424H205.252V56H197.828V44.768H195.332C195.268 46.3893 195.172 47.7227 195.044 48.768C194.938 49.8133 194.778 50.7093 194.564 51.456C194.031 53.4187 193.092 54.784 191.748 55.552C190.426 56.32 188.762 56.4693 186.756 56V50.08ZM211.578 61.952C210.724 61.952 209.978 61.8987 209.338 61.792C208.719 61.7067 207.962 61.5253 207.066 61.248V56.128C207.556 56.3413 208.132 56.512 208.794 56.64C209.455 56.768 210.074 56.832 210.65 56.832C211.567 56.832 212.303 56.6613 212.858 56.32L206.49 39.424H213.914L216.922 48.384L219.898 39.424H226.426L220.25 55.808C219.631 57.3867 218.959 58.624 218.234 59.52C217.508 60.416 216.623 61.0453 215.578 61.408C214.532 61.7707 213.199 61.952 211.578 61.952ZM238.794 39.904C240.479 39.904 241.887 40.2453 243.018 40.928C244.17 41.6107 245.034 42.5387 245.61 43.712C246.207 44.864 246.506 46.1547 246.506 47.584C246.506 49.4187 246.069 50.9867 245.194 52.288C244.341 53.5893 243.178 54.592 241.706 55.296C240.255 55.9787 238.623 56.32 236.81 56.32C234.954 56.32 233.269 55.9253 231.754 55.136C230.261 54.3253 229.077 53.0987 228.202 51.456C227.327 49.792 226.89 47.68 226.89 45.12C226.89 40.832 227.999 37.6107 230.218 35.456C231.242 34.4747 232.437 33.76 233.802 33.312C235.189 32.864 236.959 32.608 239.114 32.544C240.799 32.5013 242.101 32.4373 243.018 32.352C243.957 32.2667 244.714 32.1387 245.29 31.968V37.632C244.991 37.76 244.607 37.8667 244.138 37.952C243.69 38.016 243.093 38.08 242.346 38.144C241.621 38.1867 240.671 38.2293 239.498 38.272C237.749 38.336 236.426 38.5387 235.53 38.88C234.634 39.2213 233.941 39.776 233.45 40.544C233.087 41.184 232.821 42.016 232.65 43.04C233.162 42.08 233.941 41.3227 234.986 40.768C236.031 40.192 237.301 39.904 238.794 39.904ZM236.682 51.136C237.365 51.136 237.898 50.8693 238.282 50.336C238.666 49.7813 238.858 49.0027 238.858 48C238.858 46.9973 238.666 46.2187 238.282 45.664C237.898 45.1093 237.365 44.832 236.682 44.832C236.021 44.832 235.498 45.1093 235.114 45.664C234.751 46.2187 234.57 46.9973 234.57 48C234.57 49.0027 234.751 49.7813 235.114 50.336C235.498 50.8693 236.021 51.136 236.682 51.136ZM258.185 56.32C255.689 56.32 253.652 55.9467 252.073 55.2C250.494 54.4533 249.332 53.4293 248.585 52.128C247.838 50.8267 247.465 49.344 247.465 47.68C247.465 45.952 247.838 44.448 248.585 43.168C249.353 41.8667 250.43 40.864 251.817 40.16C253.225 39.456 254.9 39.104 256.841 39.104C259.06 39.104 260.884 39.52 262.313 40.352C263.742 41.1627 264.734 42.336 265.289 43.872C265.865 45.3867 265.972 47.1893 265.609 49.28H254.889C255.124 50.0267 255.561 50.5707 256.201 50.912C256.862 51.2533 257.865 51.424 259.209 51.424C259.977 51.424 260.734 51.3813 261.481 51.296C262.249 51.1893 263.241 50.976 264.457 50.656V55.488C263.668 55.808 262.75 56.0213 261.705 56.128C260.681 56.256 259.508 56.32 258.185 56.32ZM256.969 43.008C256.286 43.008 255.774 43.2427 255.433 43.712C255.092 44.16 254.868 44.8107 254.761 45.664H258.921C258.878 43.8933 258.228 43.008 256.969 43.008Z" fill="#21201F"/>
</svg>
