<svg width="208" height="100" viewBox="0 0 208 100" fill="none" xmlns="http://www.w3.org/2000/svg">
<path d="M0.98 1.224H10.556C14.66 1.224 17.78 1.716 19.916 2.7C22.052 3.66 23.12 5.328 23.12 7.704C23.12 9.48 22.568 10.836 21.464 11.772C20.36 12.684 18.896 13.296 17.072 13.608C19.328 13.896 21.056 14.52 22.256 15.48C23.456 16.44 24.056 17.82 24.056 19.62C24.056 21.468 23.468 22.932 22.292 24.012C21.116 25.092 19.496 25.86 17.432 26.316C15.392 26.772 13.076 27 10.484 27H0.98V1.224ZM11.744 10.908C12.512 10.908 13.136 10.788 13.616 10.548C14.12 10.284 14.372 9.768 14.372 9C14.372 8.352 14.192 7.896 13.832 7.632C13.472 7.344 12.98 7.2 12.356 7.2H9.836V10.908H11.744ZM12.284 21.06C13.172 21.06 13.868 20.88 14.372 20.52C14.9 20.16 15.164 19.572 15.164 18.756C15.164 17.94 14.9 17.364 14.372 17.028C13.844 16.692 13.04 16.524 11.96 16.524H9.836V21.06H12.284ZM36.6411 27.36C34.3371 27.36 32.3331 26.976 30.6291 26.208C28.9251 25.44 27.6051 24.336 26.6691 22.896C25.7571 21.432 25.3011 19.68 25.3011 17.64C25.3011 15.624 25.7691 13.896 26.7051 12.456C27.6411 11.016 28.9491 9.912 30.6291 9.144C32.3091 8.376 34.2771 7.992 36.5331 7.992C39.4371 7.992 41.5491 8.424 42.8691 9.288V15.12C41.4771 14.256 39.8691 13.824 38.0451 13.824C36.7491 13.824 35.7411 14.148 35.0211 14.796C34.3011 15.42 33.9411 16.368 33.9411 17.64C33.9411 18.936 34.3131 19.908 35.0571 20.556C35.8251 21.204 36.8571 21.528 38.1531 21.528C40.0971 21.528 41.6691 21.096 42.8691 20.232V26.064C42.4131 26.448 41.6331 26.76 40.5291 27C39.4251 27.24 38.1291 27.36 36.6411 27.36ZM44.1238 8.352H62.9518V14.364H57.6958V27H49.3438V14.364H44.1238V8.352ZM69.1651 33.696C68.2051 33.696 67.3651 33.636 66.6451 33.516C65.9491 33.42 65.0971 33.216 64.0891 32.904V27.144C64.6411 27.384 65.2891 27.576 66.0331 27.72C66.7771 27.864 67.4731 27.936 68.1211 27.936C69.1531 27.936 69.9811 27.744 70.6051 27.36L63.4411 8.352H71.7931L75.1771 18.432L78.5251 8.352H85.8691L78.9211 26.784C78.2251 28.56 77.4691 29.952 76.6531 30.96C75.8371 31.968 74.8411 32.676 73.6651 33.084C72.4891 33.492 70.9891 33.696 69.1651 33.696ZM86.9398 27V8.352H107.244V27H98.8918V14.364H95.2918V27H86.9398ZM117.817 13.824C116.593 13.824 115.345 13.944 114.073 14.184C112.825 14.4 111.625 14.712 110.473 15.12V9.288C111.553 8.88 112.873 8.568 114.433 8.352C115.993 8.112 117.601 7.992 119.257 7.992C121.345 7.992 123.133 8.244 124.621 8.748C126.133 9.228 127.285 10.032 128.077 11.16C128.893 12.264 129.301 13.764 129.301 15.66V24.012C129.301 24.396 129.313 24.912 129.337 25.56C129.385 26.184 129.433 26.664 129.481 27H121.561C121.489 26.664 121.417 26.28 121.345 25.848C121.297 25.392 121.237 24.936 121.165 24.48C120.709 25.2 120.013 25.86 119.077 26.46C118.141 27.06 116.869 27.36 115.261 27.36C114.205 27.36 113.209 27.192 112.273 26.856C111.361 26.496 110.617 25.932 110.041 25.164C109.489 24.396 109.213 23.388 109.213 22.14C109.213 20.1 110.077 18.504 111.805 17.352C113.533 16.2 116.269 15.624 120.013 15.624H120.949C120.853 15.072 120.637 14.676 120.301 14.436C119.965 14.172 119.569 14.004 119.113 13.932C118.681 13.86 118.249 13.824 117.817 13.824ZM120.985 20.268V19.224H119.905C118.945 19.224 118.285 19.392 117.925 19.728C117.589 20.064 117.421 20.472 117.421 20.952C117.421 21.456 117.577 21.852 117.889 22.14C118.201 22.404 118.609 22.536 119.113 22.536C119.761 22.536 120.229 22.332 120.517 21.924C120.829 21.492 120.985 20.94 120.985 20.268ZM142.309 6.804C140.653 6.804 139.273 6.516 138.169 5.94C137.089 5.364 136.273 4.596 135.721 3.636C135.193 2.652 134.929 1.56 134.929 0.36H140.905C140.905 1.608 141.373 2.232 142.309 2.232C142.717 2.232 143.041 2.076 143.281 1.764C143.545 1.452 143.677 0.983999 143.677 0.36H149.653C149.653 1.56 149.377 2.652 148.825 3.636C148.273 4.596 147.457 5.364 146.377 5.94C145.297 6.516 143.941 6.804 142.309 6.804ZM140.077 8.352V17.028L144.973 8.352H152.965V27H144.865V18.288L139.933 27H131.941V8.352H140.077ZM154.957 8.352H173.785V14.364H168.529V27H160.177V14.364H154.957V8.352ZM186.411 27.36C183.603 27.36 181.311 26.94 179.535 26.1C177.759 25.26 176.451 24.108 175.611 22.644C174.771 21.18 174.351 19.512 174.351 17.64C174.351 15.696 174.771 14.004 175.611 12.564C176.475 11.1 177.687 9.972 179.247 9.18C180.831 8.388 182.715 7.992 184.899 7.992C187.395 7.992 189.447 8.46 191.055 9.396C192.663 10.308 193.779 11.628 194.403 13.356C195.051 15.06 195.171 17.088 194.763 19.44H182.703C182.967 20.28 183.459 20.892 184.179 21.276C184.923 21.66 186.051 21.852 187.563 21.852C188.427 21.852 189.279 21.804 190.119 21.708C190.983 21.588 192.099 21.348 193.467 20.988V26.424C192.579 26.784 191.547 27.024 190.371 27.144C189.219 27.288 187.899 27.36 186.411 27.36ZM185.043 12.384C184.275 12.384 183.699 12.648 183.315 13.176C182.931 13.68 182.679 14.412 182.559 15.372H187.239C187.191 13.38 186.459 12.384 185.043 12.384ZM12.428 63H0.98V44.352H12.572C15.116 44.352 17 44.736 18.224 45.504C19.472 46.272 20.096 47.472 20.096 49.104C20.096 50.28 19.724 51.228 18.98 51.948C18.26 52.644 17.324 53.124 16.172 53.388C17.636 53.604 18.788 54.048 19.628 54.72C20.468 55.392 20.888 56.412 20.888 57.78C20.888 59.34 20.18 60.6 18.764 61.56C17.372 62.52 15.26 63 12.428 63ZM10.448 49.032H8.9V51.588H10.448C11.552 51.588 12.104 51.168 12.104 50.328C12.104 49.92 11.984 49.608 11.744 49.392C11.504 49.152 11.072 49.032 10.448 49.032ZM10.736 55.584H8.9V58.32H10.736C11.264 58.32 11.684 58.224 11.996 58.032C12.308 57.816 12.464 57.48 12.464 57.024C12.464 56.544 12.332 56.184 12.068 55.944C11.804 55.704 11.36 55.584 10.736 55.584ZM28.9658 44.352H37.3178V50.832H38.7218L42.8258 44.352H50.4578L45.2738 52.776L51.4658 63H42.0338L38.5418 56.844H37.3178V63H28.9658V44.352ZM51.6303 56.34C52.4223 56.508 53.0223 56.412 53.4303 56.052C53.8383 55.668 54.1263 54.936 54.2943 53.856C54.4623 52.8 54.5703 51.552 54.6183 50.112C54.6903 48.672 54.7263 46.752 54.7263 44.352H72.4383V63H64.0863V50.364H61.2783C61.2063 52.188 61.0983 53.688 60.9543 54.864C60.8343 56.04 60.6543 57.048 60.4143 57.888C59.8143 60.096 58.7583 61.632 57.2463 62.496C55.7583 63.36 53.8863 63.528 51.6303 63V56.34ZM79.5545 69.696C78.5945 69.696 77.7545 69.636 77.0345 69.516C76.3385 69.42 75.4865 69.216 74.4785 68.904V63.144C75.0305 63.384 75.6785 63.576 76.4225 63.72C77.1665 63.864 77.8625 63.936 78.5105 63.936C79.5425 63.936 80.3705 63.744 80.9945 63.36L73.8305 44.352H82.1825L85.5665 54.432L88.9145 44.352H96.2585L89.3105 62.784C88.6145 64.56 87.8585 65.952 87.0425 66.96C86.2265 67.968 85.2305 68.676 84.0545 69.084C82.8785 69.492 81.3785 69.696 79.5545 69.696ZM110.173 44.892C112.069 44.892 113.653 45.276 114.925 46.044C116.221 46.812 117.193 47.856 117.841 49.176C118.513 50.472 118.849 51.924 118.849 53.532C118.849 55.596 118.357 57.36 117.373 58.824C116.413 60.288 115.105 61.416 113.449 62.208C111.817 62.976 109.981 63.36 107.941 63.36C105.853 63.36 103.957 62.916 102.253 62.028C100.573 61.116 99.2408 59.736 98.2568 57.888C97.2728 56.016 96.7808 53.64 96.7808 50.76C96.7808 45.936 98.0288 42.312 100.525 39.888C101.677 38.784 103.021 37.98 104.557 37.476C106.117 36.972 108.109 36.684 110.533 36.612C112.429 36.564 113.893 36.492 114.925 36.396C115.981 36.3 116.833 36.156 117.481 35.964V42.336C117.145 42.48 116.713 42.6 116.185 42.696C115.681 42.768 115.009 42.84 114.169 42.912C113.353 42.96 112.285 43.008 110.965 43.056C108.997 43.128 107.509 43.356 106.501 43.74C105.493 44.124 104.713 44.748 104.161 45.612C103.753 46.332 103.453 47.268 103.261 48.42C103.837 47.34 104.713 46.488 105.889 45.864C107.065 45.216 108.493 44.892 110.173 44.892ZM107.797 57.528C108.565 57.528 109.165 57.228 109.597 56.628C110.029 56.004 110.245 55.128 110.245 54C110.245 52.872 110.029 51.996 109.597 51.372C109.165 50.748 108.565 50.436 107.797 50.436C107.053 50.436 106.465 50.748 106.033 51.372C105.625 51.996 105.421 52.872 105.421 54C105.421 55.128 105.625 56.004 106.033 56.628C106.465 57.228 107.053 57.528 107.797 57.528ZM15.488 99.36C12.368 99.36 9.644 98.844 7.316 97.812C5.012 96.756 3.224 95.244 1.952 93.276C0.704 91.284 0.08 88.908 0.08 86.148C0.08 83.364 0.704 80.988 1.952 79.02C3.224 77.052 5.012 75.54 7.316 74.484C9.644 73.428 12.368 72.9 15.488 72.9C16.952 72.9 18.272 73.008 19.448 73.224C20.624 73.416 21.548 73.704 22.22 74.088V80.424C21.452 80.112 20.54 79.86 19.484 79.668C18.452 79.476 17.48 79.38 16.568 79.38C14.24 79.38 12.404 79.92 11.06 81C9.74 82.08 9.08 83.796 9.08 86.148C9.08 88.476 9.74 90.18 11.06 91.26C12.404 92.316 14.24 92.844 16.568 92.844C17.552 92.844 18.572 92.748 19.628 92.556C20.684 92.364 21.548 92.124 22.22 91.836V98.172C21.5 98.556 20.552 98.844 19.376 99.036C18.2 99.252 16.904 99.36 15.488 99.36ZM32.9826 85.824C31.7586 85.824 30.5106 85.944 29.2386 86.184C27.9906 86.4 26.7906 86.712 25.6386 87.12V81.288C26.7186 80.88 28.0386 80.568 29.5986 80.352C31.1586 80.112 32.7666 79.992 34.4226 79.992C36.5106 79.992 38.2986 80.244 39.7866 80.748C41.2986 81.228 42.4506 82.032 43.2426 83.16C44.0586 84.264 44.4666 85.764 44.4666 87.66V96.012C44.4666 96.396 44.4786 96.912 44.5026 97.56C44.5506 98.184 44.5986 98.664 44.6466 99H36.7266C36.6546 98.664 36.5826 98.28 36.5106 97.848C36.4626 97.392 36.4026 96.936 36.3306 96.48C35.8746 97.2 35.1786 97.86 34.2426 98.46C33.3066 99.06 32.0346 99.36 30.4266 99.36C29.3706 99.36 28.3746 99.192 27.4386 98.856C26.5266 98.496 25.7826 97.932 25.2066 97.164C24.6546 96.396 24.3786 95.388 24.3786 94.14C24.3786 92.1 25.2426 90.504 26.9706 89.352C28.6986 88.2 31.4346 87.624 35.1786 87.624H36.1146C36.0186 87.072 35.8026 86.676 35.4666 86.436C35.1306 86.172 34.7346 86.004 34.2786 85.932C33.8466 85.86 33.4146 85.824 32.9826 85.824ZM36.1506 92.268V91.224H35.0706C34.1106 91.224 33.4506 91.392 33.0906 91.728C32.7546 92.064 32.5866 92.472 32.5866 92.952C32.5866 93.456 32.7426 93.852 33.0546 94.14C33.3666 94.404 33.7746 94.536 34.2786 94.536C34.9266 94.536 35.3946 94.332 35.6826 93.924C35.9946 93.492 36.1506 92.94 36.1506 92.268ZM47.1064 80.352H56.8624L60.0304 88.74L63.5944 80.352H73.6024L73.8184 99H65.4304V89.964L62.0824 98.352H56.7184L53.5504 89.928V99H47.1064V80.352ZM87.1587 99.36C85.1187 99.36 83.2467 99 81.5427 98.28C79.8627 97.536 78.5067 96.444 77.4747 95.004C76.4667 93.564 75.9627 91.776 75.9627 89.64C75.9627 87.528 76.4667 85.764 77.4747 84.348C78.4827 82.908 79.8267 81.828 81.5067 81.108C83.2107 80.364 85.0827 79.992 87.1227 79.992C89.1867 79.992 91.0587 80.364 92.7387 81.108C94.4427 81.828 95.7987 82.908 96.8067 84.348C97.8387 85.764 98.3547 87.528 98.3547 89.64C98.3547 91.776 97.8507 93.564 96.8427 95.004C95.8347 96.444 94.4787 97.536 92.7747 98.28C91.0947 99 89.2227 99.36 87.1587 99.36ZM87.1587 93.528C87.9267 93.528 88.5627 93.216 89.0667 92.592C89.5947 91.944 89.8587 90.96 89.8587 89.64C89.8587 88.344 89.5947 87.384 89.0667 86.76C88.5627 86.136 87.9267 85.824 87.1587 85.824C86.4147 85.824 85.7787 86.136 85.2507 86.76C84.7227 87.384 84.4587 88.344 84.4587 89.64C84.4587 90.96 84.7227 91.944 85.2507 92.592C85.7787 93.216 86.4147 93.528 87.1587 93.528ZM100.51 80.352H108.862V86.832H110.266L114.37 80.352H122.002L116.818 88.776L123.01 99H113.578L110.086 92.844H108.862V99H100.51V80.352ZM131.599 85.824C130.375 85.824 129.127 85.944 127.855 86.184C126.607 86.4 125.407 86.712 124.255 87.12V81.288C125.335 80.88 126.655 80.568 128.215 80.352C129.775 80.112 131.383 79.992 133.039 79.992C135.127 79.992 136.915 80.244 138.403 80.748C139.915 81.228 141.067 82.032 141.859 83.16C142.675 84.264 143.083 85.764 143.083 87.66V96.012C143.083 96.396 143.095 96.912 143.119 97.56C143.167 98.184 143.215 98.664 143.263 99H135.343C135.271 98.664 135.199 98.28 135.127 97.848C135.079 97.392 135.019 96.936 134.947 96.48C134.491 97.2 133.795 97.86 132.859 98.46C131.923 99.06 130.651 99.36 129.043 99.36C127.987 99.36 126.991 99.192 126.055 98.856C125.143 98.496 124.399 97.932 123.823 97.164C123.271 96.396 122.995 95.388 122.995 94.14C122.995 92.1 123.859 90.504 125.587 89.352C127.315 88.2 130.051 87.624 133.795 87.624H134.731C134.635 87.072 134.419 86.676 134.083 86.436C133.747 86.172 133.351 86.004 132.895 85.932C132.463 85.86 132.031 85.824 131.599 85.824ZM134.767 92.268V91.224H133.687C132.727 91.224 132.067 91.392 131.707 91.728C131.371 92.064 131.203 92.472 131.203 92.952C131.203 93.456 131.359 93.852 131.671 94.14C131.983 94.404 132.391 94.536 132.895 94.536C133.543 94.536 134.011 94.332 134.299 93.924C134.611 93.492 134.767 92.94 134.767 92.268ZM144.111 80.352H162.939V86.364H157.683V99H149.331V86.364H144.111V80.352ZM174.701 99.36C172.661 99.36 170.789 99 169.085 98.28C167.405 97.536 166.049 96.444 165.017 95.004C164.009 93.564 163.505 91.776 163.505 89.64C163.505 87.528 164.009 85.764 165.017 84.348C166.025 82.908 167.369 81.828 169.049 81.108C170.753 80.364 172.625 79.992 174.665 79.992C176.729 79.992 178.601 80.364 180.281 81.108C181.985 81.828 183.341 82.908 184.349 84.348C185.381 85.764 185.897 87.528 185.897 89.64C185.897 91.776 185.393 93.564 184.385 95.004C183.377 96.444 182.021 97.536 180.317 98.28C178.637 99 176.765 99.36 174.701 99.36ZM174.701 93.528C175.469 93.528 176.105 93.216 176.609 92.592C177.137 91.944 177.401 90.96 177.401 89.64C177.401 88.344 177.137 87.384 176.609 86.76C176.105 86.136 175.469 85.824 174.701 85.824C173.957 85.824 173.321 86.136 172.793 86.76C172.265 87.384 172.001 88.344 172.001 89.64C172.001 90.96 172.265 91.944 172.793 92.592C173.321 93.216 173.957 93.528 174.701 93.528ZM199.5 99H188.052V80.352H199.644C202.188 80.352 204.072 80.736 205.296 81.504C206.544 82.272 207.168 83.472 207.168 85.104C207.168 86.28 206.796 87.228 206.052 87.948C205.332 88.644 204.396 89.124 203.244 89.388C204.708 89.604 205.86 90.048 206.7 90.72C207.54 91.392 207.96 92.412 207.96 93.78C207.96 95.34 207.252 96.6 205.836 97.56C204.444 98.52 202.332 99 199.5 99ZM197.52 85.032H195.972V87.588H197.52C198.624 87.588 199.176 87.168 199.176 86.328C199.176 85.92 199.056 85.608 198.816 85.392C198.576 85.152 198.144 85.032 197.52 85.032ZM197.808 91.584H195.972V94.32H197.808C198.336 94.32 198.756 94.224 199.068 94.032C199.38 93.816 199.536 93.48 199.536 93.024C199.536 92.544 199.404 92.184 199.14 91.944C198.876 91.704 198.432 91.584 197.808 91.584Z" fill="#21201F"/>
</svg>
