<svg width="113" height="34" viewBox="0 0 113 34" fill="none" xmlns="http://www.w3.org/2000/svg">
<path d="M13.746 4.75046H11.5548C7.57416 4.75046 5.47794 6.76816 5.47794 9.75364C5.47794 13.1408 6.92776 14.7093 9.91507 16.7271L12.3674 18.3796L5.27708 28.9702H0L6.35623 19.4952C2.68602 16.8768 0.633615 14.3423 0.633615 10.0221C0.633615 4.61716 4.38235 0.963379 11.5037 0.963379H18.5921V28.9721H13.7295V4.75046H13.746ZM38.6359 8.7037V28.9721H33.8482V20.5141H27.4408V28.9721H22.6531V8.7037H27.4408V16.7271H33.8482V8.7037H38.6359ZM60.2719 33.5936H55.8348V28.9556H45.0743V33.5936H40.6372V25.1777H42.1381C43.8235 21.7905 44.1576 15.385 44.1576 10.4311V8.6964H58.1355V25.1777H60.2719V33.5936ZM53.3478 12.4908H48.2771V13.0915C48.2771 16.5938 47.9119 22.1155 46.5752 25.185H53.3478V12.4908ZM71.0306 29.3555C64.9099 29.3555 61.4387 25.9355 61.4387 18.8799C61.4387 12.7574 64.2252 8.28921 70.0646 8.28921C74.8523 8.28921 77.9547 10.957 77.9547 17.9979V20.5324H66.3944C66.5934 23.9196 67.9282 25.5703 71.4323 25.5703C73.7677 25.5703 76.2693 24.6865 77.7538 23.6694V27.588C76.3533 28.5557 74.1001 29.3555 71.0306 29.3555ZM66.3944 16.9936H73.083V16.5956C73.083 14.0611 72.3526 12.0927 69.9788 12.0927C67.6945 12.0726 66.5277 13.7744 66.3944 16.9936ZM85.978 19.0132V28.9721H81.1739V8.7037H85.978V18.0454L92.7597 8.7037H97.5986L90.826 18.0454L98.5152 28.9556H93.0683L85.978 19.0132ZM98.2395 18.847C98.2395 12.6734 101.426 8.28738 107.552 8.28738C109.926 8.28738 111.706 8.68727 112.707 9.25332V13.3253C111.739 12.7245 109.92 12.0726 108.069 12.0726C104.932 12.0726 103.197 14.3259 103.197 18.7302C103.197 22.9171 104.616 25.5849 108.036 25.5849C110.054 25.5849 111.505 25.0681 112.707 24.2172V28.1212C111.538 28.9721 109.968 29.372 107.751 29.372C101.342 29.3555 98.2377 25.6196 98.2377 18.847H98.2395Z" fill="#21201F"/>
</svg>
