<svg width="72" height="21" viewBox="0 0 72 21" fill="none" xmlns="http://www.w3.org/2000/svg">
<path d="M8.77488 2.45756H7.37612C4.83504 2.45756 3.4969 3.74558 3.4969 5.65139C3.4969 7.81364 4.42241 8.81492 6.32939 10.1029L7.89483 11.1578L3.36868 17.9185H0L4.05757 11.87C1.71465 10.1985 0.404475 8.58063 0.404475 5.82274C0.404475 2.37247 2.79752 0.0400391 7.34349 0.0400391H11.8685V17.9197H8.76439V2.45756H8.77488ZM24.6636 4.98116V17.9197H21.6073V12.5205H17.5171V17.9197H14.4608V4.98116H17.5171V10.1029H21.6073V4.98116H24.6636ZM38.4752 20.8699H35.6427V17.9092H28.7736V20.8699H25.9412V15.4975H26.8993C27.9752 13.3352 28.1885 9.2462 28.1885 6.08384V4.97649H37.1114V15.4975H38.4752V20.8699ZM34.0551 7.39868H30.8182V7.78217C30.8182 10.0179 30.585 13.5427 29.7318 15.5022H34.0551V7.39868ZM45.3431 18.1645C41.4359 18.1645 39.22 15.9812 39.22 11.4772C39.22 7.56886 40.9988 4.71656 44.7265 4.71656C47.7828 4.71656 49.7632 6.41955 49.7632 10.9142V12.5321H42.3836C42.5106 14.6944 43.3627 15.7481 45.5996 15.7481C47.0904 15.7481 48.6873 15.1839 49.635 14.5347V17.0361C48.7409 17.6539 47.3025 18.1645 45.3431 18.1645ZM42.3836 10.2731H46.6533V10.019C46.6533 8.40112 46.187 7.14457 44.6717 7.14457C43.2135 7.13175 42.4687 8.21812 42.3836 10.2731ZM54.885 11.5623V17.9197H51.8182V4.98116H54.885V10.9445L59.2141 4.98116H62.3031L57.9797 10.9445L62.8882 17.9092H59.4111L54.885 11.5623ZM62.7122 11.4562C62.7122 7.51524 64.7462 4.71539 68.6569 4.71539C70.1723 4.71539 71.3087 4.97066 71.9475 5.33201V7.93137C71.3297 7.54788 70.1688 7.13175 68.9868 7.13175C66.9843 7.13175 65.8769 8.57014 65.8769 11.3816C65.8769 14.0544 66.7826 15.7574 68.9658 15.7574C70.2538 15.7574 71.1805 15.4276 71.9475 14.8844V17.3765C71.2015 17.9197 70.1991 18.1749 68.784 18.1749C64.6926 18.1645 62.711 15.7796 62.711 11.4562H62.7122Z" fill="#21201F"/>
</svg>
