<svg width="36" height="32" viewBox="0 0 36 32" fill="none" xmlns="http://www.w3.org/2000/svg">
<path d="M11.7419 0H24.1658C27.1323 0.000309087 29.9772 1.1785 32.0748 3.27545C34.1725 5.3724 35.351 8.21638 35.3514 11.1819V20.8194C35.3514 22.2877 35.062 23.7417 34.4999 25.0983C33.9377 26.4549 33.1138 27.6875 32.0751 28.7258C31.0364 29.764 29.8033 30.5875 28.4462 31.1494C27.0891 31.7112 25.6346 32.0003 24.1658 32.0001H11.8701C10.4013 32.0003 8.94679 31.7112 7.5897 31.1494C6.23261 30.5875 4.99951 29.764 3.96082 28.7258C2.92213 27.6875 2.09819 26.4549 1.53604 25.0983C0.973902 23.7417 0.68457 22.2877 0.68457 20.8194V11.1819C0.68457 5.00523 5.56317 0 11.7419 0Z" fill="#21201F"/>
</svg>
